<svg xmlns="http://www.w3.org/2000/svg" xmlns:xlink="http://www.w3.org/1999/xlink" viewBox="0 0 2000 2000"><defs><style>.cls-1{isolation:isolate;}.cls-2{fill:#f3fff1;}.cls-3{fill:#eff1d1;}.cls-4{fill:#eec280;}.cls-5{fill:#f3f0ed;}.cls-6{fill:#8bc3a3;}.cls-7{fill:url(#linear-gradient);}.cls-8{fill:url(#linear-gradient-2);}.cls-9{fill:#bebebe;mix-blend-mode:multiply;opacity:0.45;}.cls-10,.cls-12,.cls-17{opacity:0.33;}.cls-11{fill:#4e242d;}.cls-12{fill:#bfc78c;}.cls-13{fill:#2f444d;}.cls-14{fill:#edbd5a;}.cls-15{fill:#e29a62;}.cls-16{fill:#dd6819;}.cls-17{fill:#668a60;}.cls-18{fill:#f5f2e8;}.cls-19{fill:url(#linear-gradient-3);}.cls-20{fill:url(#linear-gradient-4);}.cls-21{fill:#fbc09a;}.cls-22{fill:#5780ad;}.cls-23{fill:#40223b;}.cls-24{fill:#6da3c5;}.cls-25{fill:#ffaa8a;}.cls-26{fill:#291010;}.cls-27{fill:#080202;}.cls-28,.cls-41{fill:#fff;}.cls-29{fill:#d04952;}.cls-30{fill:#f5a88a;}.cls-31{fill:#ee5e59;}.cls-32{fill:#582e4d;}.cls-33{fill:#b23f4a;}.cls-34{fill:#dedbdb;}.cls-35{fill:#2b1e19;}.cls-36{fill:#569997;}.cls-37{opacity:0.7;}.cls-38{opacity:0.51;}.cls-39{fill:#c13b00;}.cls-40{fill:#cee7ef;}.cls-41{opacity:0.5;}.cls-42{fill:#ef9f00;}</style><linearGradient id="linear-gradient" x1="1240.36" y1="1344.25" x2="1240.36" y2="1869.89" gradientUnits="userSpaceOnUse"><stop offset="0" stop-color="#faffec"/><stop offset="0.03" stop-color="#fff"/><stop offset="1" stop-color="#fff7ee"/></linearGradient><linearGradient id="linear-gradient-2" x1="1437.75" y1="1344.25" x2="1437.75" y2="1869.89" gradientUnits="userSpaceOnUse"><stop offset="0" stop-color="#f4f7e0"/><stop offset="0.97" stop-color="#ede7de"/></linearGradient><linearGradient id="linear-gradient-3" x1="1229.69" y1="1350.72" x2="1229.69" y2="1876.37" xlink:href="#linear-gradient"/><linearGradient id="linear-gradient-4" x1="1427.08" y1="1350.72" x2="1427.08" y2="1876.37" xlink:href="#linear-gradient-2"/></defs><g class="cls-1"><g id="Bg"><path class="cls-2" d="M0,0V2000H2000V0Z"/><path class="cls-3" d="M1693.29,1693.66c-29.22,30.72-56.83,50.55-78.67,66.2-256.59,184.08-560.21,130.41-624.73,117.28-95.29-19.32-279.46-56.73-412.64-213.31-201.46-236.85-170.08-610-13.83-856.37,28.54-45,179.58-295.12,486.45-335.2,185.72-24.28,402.25,24.67,559,156C1938,903.88,1914.57,1460.78,1693.29,1693.66Z"/></g><g id="Obect"><rect class="cls-4" x="108.52" y="87.45" width="1005.56" height="750.25" rx="35.25"/><path class="cls-5" d="M1114.08,123.28v-.58a35.26,35.26,0,0,0-35.26-35.25h-935a35.25,35.25,0,0,0-35.25,35.25v.58Z"/><path class="cls-5" d="M244.72,262H532.17a25.08,25.08,0,0,1,25.08,25.08V608.8a24,24,0,0,1-24,24H243.63a24,24,0,0,1-24-24V287.07A25.08,25.08,0,0,1,244.72,262Z"/><path class="cls-3" d="M219.65,572.83H557.24a0,0,0,0,1,0,0V607.7a25.08,25.08,0,0,1-25.08,25.08H244.72a25.08,25.08,0,0,1-25.08-25.08V572.83A0,0,0,0,1,219.65,572.83Z"/><rect class="cls-6" x="233.35" y="583.12" width="123.18" height="39.36"/><rect class="cls-5" x="644.73" y="262" width="337.59" height="370.78" rx="16.23"/><path class="cls-3" d="M644.73,572.83H982.32a0,0,0,0,1,0,0v43.71a16.23,16.23,0,0,1-16.23,16.23H661a16.23,16.23,0,0,1-16.23-16.23V572.83A0,0,0,0,1,644.73,572.83Z"/><rect class="cls-6" x="658.43" y="583.12" width="123.18" height="39.36"/><polygon class="cls-7" points="1042.98 1344.25 995.6 1869.89 1485.13 1869.89 1432.49 1344.25 1042.98 1344.25"/><polygon class="cls-8" points="1432.49 1344.25 1390.38 1869.89 1485.13 1869.89 1432.49 1344.25"/><polygon class="cls-9" points="1485.01 1868.7 1417.8 1792.32 1398.36 1770.22 1390.38 1869.89 1415.1 1869.89 1485.13 1869.89 1485.01 1868.7"/><g class="cls-10"><path class="cls-11" d="M1181.19,1344.56h-13.73c-33,12.53-31.57,28.62-31.48,29.38s2.71,1.18,6,1.08l1,0c3.82-.23,6.86-1.07,6.75-1.88C1149.74,1372.91,1148,1356.29,1181.19,1344.56Z"/></g><g class="cls-10"><path class="cls-11" d="M1358.84,1344.56h-13.73c-33,12.53-31.57,28.62-31.48,29.38s2.71,1.18,6,1.08l1,0c3.82-.23,6.86-1.07,6.75-1.88C1327.39,1372.91,1325.64,1356.29,1358.84,1344.56Z"/></g><polygon class="cls-12" points="1432.49 1344.24 1398.36 1770.22 1390.38 1869.89 1415.1 1869.89 1417.8 1792.32 1433.2 1351.31 1432.49 1344.24"/><path class="cls-13" d="M1145.61,1399.85a7.76,7.76,0,0,1-7.81-6.38c-.65-4.3-15.44-105.77,30-157.51,16.09-18.3,37.71-28.17,64.26-29.33,25.77-1.17,47,6.68,63.06,23.19,47.79,49.12,32.65,158.94,32,163.59a7.82,7.82,0,0,1-8.88,6.37,7.53,7.53,0,0,1-6.77-8.36c.16-1.07,14.82-107.6-28-151.57-12.93-13.29-29.5-19.33-50.66-18.37-22.24,1-39.52,8.81-52.83,24-41.08,46.71-26.73,144.94-26.58,145.92a7.51,7.51,0,0,1-6.7,8.41A8.44,8.44,0,0,1,1145.61,1399.85Z"/><polygon class="cls-14" points="1387.96 1293.89 1338.17 1869.28 1852.7 1869.28 1797.37 1293.89 1387.96 1293.89"/><polygon class="cls-15" points="1797.37 1293.89 1753.11 1869.28 1852.7 1869.28 1797.37 1293.89"/><polygon class="cls-16" points="1852.57 1867.97 1781.93 1784.36 1761.5 1760.18 1753.11 1869.28 1779.09 1869.28 1852.7 1869.28 1852.57 1867.97"/><g class="cls-10"><path class="cls-11" d="M1533.24,1294.24h-14.43c-34.73,13.72-33.19,31.32-33.09,32.16s2.84,1.29,6.35,1.18l1,0c4-.25,7.21-1.18,7.09-2.07C1500.18,1325.27,1498.34,1307.07,1533.24,1294.24Z"/></g><g class="cls-10"><path class="cls-11" d="M1720,1294.24h-14.43c-34.73,13.72-33.19,31.32-33.09,32.16s2.85,1.29,6.36,1.18l1,0c4-.25,7.21-1.18,7.1-2.07C1686.9,1325.27,1685.06,1307.07,1720,1294.24Z"/></g><polygon class="cls-17" points="1797.37 1293.89 1761.5 1760.18 1753.11 1869.28 1779.09 1869.28 1781.93 1784.36 1798.12 1301.63 1797.37 1293.89"/><path class="cls-18" d="M1495.84,1354.75a8.24,8.24,0,0,1-8.21-7c-.68-4.7-16.23-115.78,31.58-172.41,16.9-20,39.63-30.83,67.54-32.1,27.09-1.29,49.39,7.31,66.28,25.38,50.23,53.76,34.32,174,33.62,179.07a8.28,8.28,0,0,1-9.34,7,8.16,8.16,0,0,1-7.11-9.15c.16-1.17,15.57-117.78-29.42-165.91-13.6-14.55-31-21.16-53.26-20.11-23.37,1.07-41.53,9.64-55.53,26.22-43.17,51.14-28.08,158.66-27.93,159.74a8.15,8.15,0,0,1-7,9.2A7.89,7.89,0,0,1,1495.84,1354.75Z"/><polygon class="cls-19" points="1032.3 1350.72 984.93 1876.37 1474.45 1876.37 1421.81 1350.72 1032.3 1350.72"/><polygon class="cls-20" points="1421.81 1350.72 1379.7 1876.37 1474.45 1876.37 1421.81 1350.72"/><polygon class="cls-9" points="1474.33 1875.17 1407.13 1798.79 1387.69 1776.7 1379.7 1876.37 1404.42 1876.37 1474.45 1876.37 1474.33 1875.17"/><g class="cls-10"><path class="cls-11" d="M1170.52,1351h-13.74c-33,12.53-31.57,28.61-31.48,29.37s2.71,1.19,6,1.09l1,0c3.83-.23,6.86-1.08,6.75-1.89C1139.06,1379.39,1137.31,1362.76,1170.52,1351Z"/></g><g class="cls-10"><path class="cls-11" d="M1348.17,1351h-13.74c-33,12.53-31.57,28.61-31.48,29.37s2.71,1.19,6,1.09l1,0c3.83-.23,6.86-1.08,6.75-1.89C1316.71,1379.39,1315,1362.76,1348.17,1351Z"/></g><polygon class="cls-12" points="1421.81 1350.72 1387.69 1776.7 1379.7 1876.37 1404.42 1876.37 1407.13 1798.79 1422.52 1357.79 1421.81 1350.72"/><path class="cls-13" d="M1134.93,1406.32a7.76,7.76,0,0,1-7.81-6.38c-.65-4.3-15.43-105.77,30-157.51,16.09-18.29,37.71-28.16,64.27-29.32,25.77-1.18,47,6.67,63.06,23.18,47.78,49.12,32.65,158.94,32,163.59a7.83,7.83,0,0,1-8.88,6.37,7.53,7.53,0,0,1-6.77-8.36c.15-1.06,14.82-107.59-28-151.57-12.94-13.29-29.51-19.32-50.67-18.37-22.23,1-39.51,8.81-52.83,24-41.07,46.72-26.72,144.94-26.57,145.93a7.53,7.53,0,0,1-6.7,8.41A8.68,8.68,0,0,1,1134.93,1406.32Z"/><rect class="cls-21" x="966.15" y="1642.06" width="90.4" height="109.96" transform="translate(2511.49 2982.49) rotate(161.39)"/><path class="cls-22" d="M872.29,986.6l-12.57,4.29c-69.45,23.45-127.29,54.66-130.46,134.16-2.86,72,32.66,140.09,58.59,205.09,38.76,97.14,150.33,335.07,160,360.38,10.74-1.59,120.52-32.13,118.77-38.08-24.06-81.47-63.45-158.33-90.58-238.88l-15.92-47.25L920.5,1248.54q-6-17.83-12-35.68c-5.48-16.26-6.35-23.94,13.1-31.57,4.86-1.91,9.77-3.71,14.66-5.56C865.56,1142.81,853.43,1055.39,872.29,986.6Z"/><path class="cls-23" d="M899.41,1854c-2.26-13.56,8.17-24.66,16.79-33.55q8.76-9,17.58-18c15.91-16.18,31.64-32.81,47.89-48.66,4.83,6.17,13,6.23,21.55,4.26,26.1-6,56.46-19,62.39-39.54,8.31,21.63,17.58,42.9,26.44,64.3q2.52,6.06,5,12.11l-57.65,23.87-84.58,35q-18.83,7.8-37.66,15.6c-8.48,3.52-11.12,2.19-15.18-6.87A34.72,34.72,0,0,1,899.41,1854Z"/><path class="cls-22" d="M1361.44,1277c-165-86.76-360.67-176.3-503.1-246.67-62,35.21-115.38,105.51-88.8,178.81,71.84,32.5,141.64,71.19,212.12,106.3,55.15,27.47,109.86,59.75,166.88,83,46.84,19.12,102,25.43,147.63-.44A112.74,112.74,0,0,0,1315,1384.6c18.2-15.94,31.23-36.77,42.21-58.1C1366.35,1308.65,1385.24,1289.5,1361.44,1277Z"/><polygon class="cls-21" points="494.5 1671.86 584.07 1683.06 633.09 1584.62 552.17 1544.32 494.5 1671.86"/><path class="cls-23" d="M390.55,1695.62c4.14-13.1,18.47-18.26,30.19-22.27q11.88-4.08,23.81-8c21.52-7.19,43.08-14.88,64.76-21.63,1.5,7.69,8.76,11.45,17.27,13.57,26,6.48,58.93,8.69,73.54-6.93-2.41,23-3.8,46.21-5.61,69.31l-1,13.05-62.21-4.87L440,1720.65l-40.63-3.18c-9.16-.72-10.91-3.1-10.42-13A35.14,35.14,0,0,1,390.55,1695.62Z"/><path class="cls-24" d="M635.1,1619.55c-3,5.45-102.1-50.74-110.82-57.22,11.07-24.76,100.81-271.74,142.25-367.77,27.72-64.26,50.9-129,103.88-177.72,58.53-53.88,121.48-35,187.12-2.33,143.27,71.21,243.66,158.27,413.21,247.44,31.44,16.53-21.93,81.18-36.2,96.77-34.15,37.3-88.62,51.72-136.46,34.14-28-10.29-52.5-28.17-76.82-45.48-71.65-51-144.74-101.48-223.33-140.77-12.53-5.84-24.32-14.32-37.82-17.91-19.55-5.18-25.22,6-33,23C765,1348.28,707.05,1487.8,635.1,1619.55Z"/><g id="Skin_color-9" data-name="Skin color-9"><path class="cls-25" d="M1096.67,932.89c-16.5,15.41-30.41,24.11-41.32,25.88a35.17,35.17,0,0,1-13.71-.51h0a50.68,50.68,0,0,1-20.48-10.93,112.6,112.6,0,0,1-18.8-20.92c-10.84-15.12-21.61-35.52-32-60.63C951.9,821.18,939,772.58,933,747.57c-14.71-7.6-40.4-22-47.13-33.33-3.78-6.32-6.32-22.83-6.8-44.14-.44-19.56,1-37.54,3.57-44.71.68-1.92,1.44-3,2.25-3.33,1.42-.54,34.9-13.36,44.93-11a6.36,6.36,0,0,1,1.14.38l9.68-1.9.2,0,.34-.06.55,48.66a11.65,11.65,0,0,1,2.19,4.43c.26,1.46-.45,2.4-2.1,2.8l.16,14.25v0s0,.06,0,.09a2.77,2.77,0,0,1,0,1.11L942,687l24.55-67.05h0c1.47,2.1,35.93,51.85,41.61,66.75,3.42,9-3.82,30.38-10.5,46.76l57.74,103.41,6-9.08A84.42,84.42,0,0,1,1190.62,814h0c-.9,1.41-22.4,34.93-49.7,69.47A451.57,451.57,0,0,1,1096.67,932.89Z"/></g><path id="Phone-2" class="cls-26" d="M907,691.66l-.44,14a7.62,7.62,0,0,0,5.86,7.65l57.36,13.54,6.31-160.48-55.71-13.15a6.53,6.53,0,0,0-8,6.1l-2.14,54.39c0,.39,35.37-10.52,15.85,7.57-4.22,3.91-8.52,7.76-12.8,11.62l9.3,7a105.2,105.2,0,0,1,15.89,14.23c1.48,1.7,6,6.42,5.6,8.89-1,5.79-10.22,1.28-13.13,0-5.29-2.35-11.67-3.66-16.94-6.12l15,7c4.42,4.31,9.45,8.31,12.28,13.89,4,7.87-8.77,3-11.61,2.08-4.5-1.51-8.89-3.33-13.35-4.95l6.33,5.69,4.11,4.13,3.88,3.34c1.13,1,2.33,5.83,1.7,7.26-2.28,5.2-15.36,0-18.9-1.27Z"/><path id="Fill_23" data-name="Fill 23" class="cls-27" d="M969.77,726.82l2.74.65a6.56,6.56,0,0,0,8.07-6.13l5.75-146.48a7.35,7.35,0,0,0-5.65-7.43l-4.6-1.08Z"/><path class="cls-28" d="M965.69,573.26c-2.44-.09-4.56,3.63-4.74,8.32s1.64,8.56,4.08,8.66,4.56-3.63,4.74-8.32S968.12,573.34,965.69,573.26Z"/><path class="cls-29" d="M1074.78,793.74c-1.36.89-2.7,1.8-4,2.76-7.39,5.36-15,13.21-24.55,6.81-2.9-1.93-4.73-5.06-6.47-8.07q-15.85-27.57-31.73-55.13l-83.9,22c2.83,42,17.65,82.15,34.14,120.84,9,21.07,18.71,42.23,33.65,59.59s36,30.68,58.86,31.55c32.47,1.24,60.26-21.7,84.54-43.31l31.6-28.12c11.2-10,22.56-20.12,30.45-32.87,11.38-18.39,14.61-40.8,13.82-62.41-.62-16.79-4.37-33.57-12.13-48.55-5-9.67-12.4-26.26-23.53-30.37-11.7-4.33-24,7-32.94,13.83-16.25,12.46-30.49,27.46-47.48,39C1088.35,785.82,1081.37,789.44,1074.78,793.74Z"/><path class="cls-29" d="M1406.48,1227.86c-7,28.44-17.29,50.53-32.88,50-51.39-1.92-100.29-14.5-150.73-21.51-53.34-7.41-106.09-19.74-156.65-38.38-8.92-3.29-18-6.91-25-13.33-20.88-19.1-16-62.83-13.29-88,3-27.71,8.64-55,12.49-82.52A1128,1128,0,0,1,1079,861.42c12.24-40.12,28.38-80.86,54.59-114.07,35-44.39,62.5-54.21,115.94-52.25,28.67,1.06,45.94,6.47,67.49,27.75,106.3,104.95,121.18,249.28,104.79,391.05C1419.71,1132,1416.6,1186.62,1406.48,1227.86Z"/><path class="cls-30" d="M1294.18,636.45l-12.75,65.37s-41.9,41.36-81.61,4.87a5.76,5.76,0,0,1-1.59-5.72l18-67.4Z"/><polygon class="cls-31" points="1216.18 633.57 1294.18 636.45 1291.11 652.19 1204.03 679.2 1216.18 633.57"/><path class="cls-30" d="M1229,660.26c-16-2.77-31.36-8.47-44.68-17.7a84.44,84.44,0,0,1-34.08-49.72c-5.2-22.34.59-42.28,7.47-63.41,6.73-20.67,19.86-44.44,41.42-52.57,36.71-13.84,73.83-11.8,106.59,10.86,12.85,8.89,23.77,21.06,29.32,35.66,11.34,29.89-1.51,63.27-14,90.61-7.75,16.89-17.13,33.19-34.39,41.67C1268.71,664.46,1248.24,663.59,1229,660.26Z"/><path class="cls-23" d="M1197.74,412.63c32,12,66.15-2.78,99.34,8.38,31.31,10.51,56,36.08,68.78,66.17,18.63,43.75,2.66,83.83-31.3,113.91-4.91,4.34-10.37,8.5-16.82,9.7-18.24,3.42-30.06-23-35.83-35.92a187.29,187.29,0,0,1-9.39-24.91l-.12-.42c-1.53-5.47-7.07-35.72-.64-38.78-3.07,1.46-6,3-9.2,4.26a26.47,26.47,0,0,1-2.8-5.34c-33.52,13.48-64.69,23.07-100.73,10.14a116.39,116.39,0,0,1-70-71.72c-3.53-10.61-4.67-24.22,4.1-31.17,9-7.15,22.14-2.57,32.57,2.26-5.45-11.64,3.18-27.39,15.93-29.05,8.58-1.11,16.82,3.2,24.46,7.27C1175.89,402.65,1186.63,408.46,1197.74,412.63Z"/><path class="cls-30" d="M1350.7,618.14c-16.08,24.3-62.55,22.58-47.82-19.6,10-28.61,53.45-34.79,53.08,2.11A31.86,31.86,0,0,1,1350.7,618.14Z"/><g id="Fill_10-4" data-name="Fill 10-4"><path class="cls-31" d="M1190.37,590.47l-5.2-.69a10.84,10.84,0,0,1-9.52-10.59c0-4.26,2.49-7.67,4.92-11a31.78,31.78,0,0,0,3.07-4.65,1.59,1.59,0,1,1,2.85,1.43,36.88,36.88,0,0,1-3.35,5.12c-2.23,3-4.33,5.85-4.31,9a7.64,7.64,0,0,0,6.75,7.45l5.2.69Z"/></g><path class="cls-23" d="M1225.67,550.58h0a8.1,8.1,0,0,0-10,5.59v0a8.11,8.11,0,1,0,10-5.61Z"/><path class="cls-23" d="M1166.73,545.18h0a7.91,7.91,0,0,0-9.76,5.46v0a7.92,7.92,0,1,0,9.77-5.48Z"/><g id="Group_19" data-name="Group 19"><g id="Fill_16" data-name="Fill 16"><path class="cls-32" d="M1188.92,612.15a28.26,28.26,0,0,1-8.94-1.44,1.89,1.89,0,1,1,1.2-3.59,24.87,24.87,0,0,0,23.9-4.7,1.89,1.89,0,1,1,2.46,2.87A28.61,28.61,0,0,1,1188.92,612.15Z"/></g></g><path class="cls-29" d="M1318.08,1017.69c-50.1,53.82-116,96.8-186.5,118.22-76.82,23.33-173.9,6.7-249.35-16.5-13.7-4.21-39.61-11.77-48-24.55-7.26-11,8.71-34.25,13.81-46.28L868.2,1001a11.86,11.86,0,0,1,11.73-7.19c29.08,1.92,127.28-.12,138.43-2.75,47.49-11.19,85.45-34.78,119.63-69.47,36.52-37.07,76-71,114.91-105.67,19.79-17.65,38.87-27.12,65.63-21.47,25.31,5.35,49.52,18.86,64.3,40.08,18.44,26.47,4.53,61.22-4.81,88.81C1367.17,955.39,1345.88,987.82,1318.08,1017.69Z"/><path class="cls-28" d="M1052.58,1149.84c-7.7,0-15.47-.35-23.3-1.13a2.33,2.33,0,0,1,.47-4.64c87,8.68,169.89-36.17,170.72-36.62,38.49-20.52,72.6-45.59,101.41-74.52a372.23,372.23,0,0,0,58.63-76.25c27-46.78,33.53-83,33.59-83.4a2.33,2.33,0,0,1,4.6.79c-.07.37-6.66,37.29-34,84.74a376.48,376.48,0,0,1-59.38,77.3c-29.16,29.31-63.68,54.69-102.6,75.44C1201.94,1112,1132,1149.84,1052.58,1149.84Z"/><path class="cls-28" d="M835.39,1081.93a2.45,2.45,0,0,1-.87-.17,2.34,2.34,0,0,1-1.3-3l34.42-86.16a2.31,2.31,0,0,1,2.25-1.47l10.13.37c17.6,1,83,0,110.86-.35,29.89-.43,58.82-11,60.18-11.56a419.71,419.71,0,0,0,45-23.29c14.37-8.75,57.7-49.62,95.93-85.67,18.82-17.74,36.59-34.5,48.48-45.12,35.88-32,55.93-33.18,56.77-33.21a2.33,2.33,0,0,1,.2,4.66c-6.6.35-26.35,7.49-53.86,32-11.85,10.57-29.6,27.31-48.39,45-38.39,36.21-81.91,77.25-96.7,86.26a429,429,0,0,1-45.63,23.61l-.1,0c-1.23.46-30.5,11.42-61.82,11.87-28,.41-93.42,1.36-111.14.35l-8.44-.31-33.81,84.64A2.33,2.33,0,0,1,835.39,1081.93Z"/><path class="cls-32" d="M1313.89,601.77a1.88,1.88,0,0,1-1.53-3c6.19-8.51,12.87-13,19.85-13.27,9-.4,14.9,6.3,15.14,6.59a1.89,1.89,0,0,1-2.85,2.49h0c0-.06-5-5.63-12.17-5.3-5.75.27-11.44,4.21-16.91,11.72A1.91,1.91,0,0,1,1313.89,601.77Z"/><path class="cls-29" d="M1213.53,705.23,1238.76,683l56.45,6.7,10.3,22.68-28.7,13.47S1205,745.26,1213.53,705.23Z"/><polygon class="cls-29" points="1213.53 705.23 1204.03 679.2 1190.33 676.24 1171.26 711.35 1214.21 718.74 1213.53 705.23"/><polygon class="cls-33" points="1241.38 691.58 1257.95 718.27 1221.68 708.75 1241.38 691.58"/><polygon class="cls-33" points="1208.21 707.21 1194.05 685.94 1184.15 705.2 1208.21 707.21"/><path class="cls-33" d="M1211.66,713.79c-9,30.92-18.48,61.71-27.29,92.68q-6.88,23.16-13.36,46.41c-4.25,15.52-8.52,31-12.15,46.69a1,1,0,0,1-2-.43c3.25-15.82,7.31-31.43,11.6-47s8.66-31,13.19-46.51c9.38-30.82,18.73-61.65,29-92.21a.54.54,0,0,1,1,.33Z"/><path class="cls-34" d="M1493.94,1773.76h-540a12.52,12.52,0,1,1,0-25h540a4.72,4.72,0,0,0,4.28-6.72l-143.39-306.8a12.51,12.51,0,1,1,22.67-10.6l143.4,306.8a29.75,29.75,0,0,1-27,42.35Z"/><path class="cls-34" d="M1366.16,1442.42H988.08a67.4,67.4,0,0,1-60.64-37.49l-98.76-261.47a40.34,40.34,0,0,1,36.1-58.38h567.5L1457,956.83a12.52,12.52,0,0,1,24.58,4.74L1455,1099.69c0,.19-.07.38-.11.57l-76.39,332A12.51,12.51,0,0,1,1366.16,1442.42ZM864.78,1110.11a15.31,15.31,0,0,0-13.71,22.16l98.76,261.47a42.53,42.53,0,0,0,38.25,23.65h367.75l71.62-307.28Z"/><path class="cls-34" d="M1245.05,1438.65h-.15a9.38,9.38,0,0,1-8.59-10.12l32.07-331.06a9.39,9.39,0,0,1,10-8.61h.15a9.39,9.39,0,0,1,8.59,10.11L1255,1430A9.38,9.38,0,0,1,1245.05,1438.65Z"/><path class="cls-34" d="M1016.05,1420l-124.4-322.54H871.57L998.13,1425.6a9.38,9.38,0,0,0,17.92-5.58Z"/><path class="cls-34" d="M1061.29,1442.22a9.37,9.37,0,0,1-8.6-7.62l-79.94-338.22a9.39,9.39,0,0,1,18.45-3.48l79.93,338.22a9.37,9.37,0,0,1-9.84,11.1Z"/><path class="cls-34" d="M1124.6,1436.78a9.34,9.34,0,0,1-8.61-8.29l-39.23-327.77a9.2,9.2,0,0,1,8.43-10,9.37,9.37,0,0,1,10.25,8.28l39.23,327.77a9.19,9.19,0,0,1-8.42,10A10.11,10.11,0,0,1,1124.6,1436.78Z"/><path class="cls-34" d="M1178.68,1439.29a9.38,9.38,0,0,1-9.38-9.2l-7.47-332.32a9.4,9.4,0,0,1,9.21-9.57h.18a9.39,9.39,0,0,1,9.38,9.21l7.47,332.32a9.38,9.38,0,0,1-9.21,9.56Z"/><path class="cls-34" d="M1306.54,1437.23a9.39,9.39,0,0,1-8-10.62l55.73-328.37a9.38,9.38,0,0,1,10.61-8h0a9.39,9.39,0,0,1,8,10.61l-55.74,328.38a9.38,9.38,0,0,1-10.61,8Z"/><circle class="cls-35" cx="1011.86" cy="1840.53" r="55.77" transform="translate(-690.45 610.27) rotate(-25.34)"/><circle class="cls-35" cx="1391.51" cy="1840.53" r="55.77" transform="translate(-598.42 672.61) rotate(-22.5)"/><path class="cls-35" d="M1609,946.9h-136a18.23,18.23,0,0,0-18.23,18.23v6.4H1609a12.32,12.32,0,0,0,12.31-12.32h0A12.31,12.31,0,0,0,1609,946.9Z"/><polygon class="cls-21" points="494.5 1671.23 584.07 1682.43 633.09 1584 552.17 1543.7 494.5 1671.23"/><path class="cls-23" d="M390.55,1695c4.14-13.11,18.47-18.26,30.19-22.28q11.88-4.08,23.81-8c21.52-7.2,43.08-14.88,64.76-21.64,1.5,7.69,8.76,11.46,17.27,13.58,26,6.47,58.93,8.68,73.54-6.93-2.41,23-3.8,46.2-5.61,69.3l-1,13.06-62.21-4.88L440,1720l-40.63-3.18c-9.16-.71-10.91-3.1-10.42-13A35,35,0,0,1,390.55,1695Z"/><path class="cls-24" d="M635.1,1618.93c-3,5.44-102.1-50.75-110.82-57.23C535.35,1537,625.09,1290,666.53,1193.93c27.72-64.26,50.9-128.94,103.88-177.72a124.84,124.84,0,0,1,83.14-33c36.91-.34,82.46,12.16,110.07,37.77,49.64,46.06,121.46,11.89,171.1,58-33.71,8.68-79.22,61-112.78,51.81-35-9.62-115.6-21.3-136,.18-14,14.8-27.66,31.61-37.09,49.28-5.75,10.77-10.48,22.14-17.44,32.17-31.5,45.36-50.07,100.89-72.6,151.16C720.16,1449.89,680.46,1535.87,635.1,1618.93Z"/><path class="cls-25" d="M788,1065.51c-7.49-2.49-14.89-5.13-22.38-8-7.18-2.8-13.71-10.4-8.07-18.25-4.06-3.76-5.39-7.44-4.17-13.27a18.93,18.93,0,0,1,9.51-12.72c-2.39-1.09-3.82-4.63-4.11-7.25-.9-8.05,3.37-15.65,12.1-16.72-1.49.18-.89-6.82-.68-7.54a23.2,23.2,0,0,1,3.71-6.54A16.37,16.37,0,0,1,787.46,968c3.75.07,7.35,1.42,10.85,2.75,21,8,44,14.34,64.14,24.29,8.43,4.16,7.72,2.44,9,10.84.72,4.94-1.11,11.9-1.72,16.85-2.3,18.76-5.42,34-4.67,53.13a2.68,2.68,0,0,1-.43,1.92,2.62,2.62,0,0,1-1.79.61,159.69,159.69,0,0,1-18.67.75c-13.93-.51-27.33-4.67-40.56-8.69C798.3,1068.85,793.12,1067.22,788,1065.51Z"/><path class="cls-32" d="M788.31,996.58a1.51,1.51,0,0,1-.51-.08l-17.45-5.7a1.63,1.63,0,0,1,1-3.1l17.45,5.7a1.64,1.64,0,0,1,1,2.06A1.62,1.62,0,0,1,788.31,996.58Z"/><path class="cls-32" d="M776.67,1018.54a1.52,1.52,0,0,1-.42-.06l-13.8-3.68a1.64,1.64,0,0,1,.85-3.16l13.79,3.69a1.63,1.63,0,0,1,1.16,2A1.65,1.65,0,0,1,776.67,1018.54Z"/><path class="cls-32" d="M768.51,1043.68a1.51,1.51,0,0,1-.41-.06l-11-2.83a1.63,1.63,0,1,1,.81-3.16l11,2.83a1.64,1.64,0,0,1-.41,3.22Z"/><path class="cls-29" d="M1318.08,1017.06c-50.1,53.83-116,96.8-186.5,118.22-76.82,23.33-173.9,6.7-249.35-16.5-13.7-4.21-39.61-11.77-48-24.55C827,1083.2,842.93,1060,848,1048l20.17-47.58a11.87,11.87,0,0,1,11.73-7.2c29.08,1.93,127.28-.12,138.43-2.74,47.49-11.19,85.45-34.78,119.63-69.48,36.52-37.07,76-71,114.91-105.67,19.79-17.65,38.87-27.12,65.63-21.47,25.31,5.35,49.52,18.86,64.3,40.09,18.44,26.47,4.53,61.21-4.81,88.8C1367.17,954.77,1345.88,987.19,1318.08,1017.06Z"/><path class="cls-28" d="M835.39,1081.3a2.25,2.25,0,0,1-.87-.17,2.33,2.33,0,0,1-1.3-3l34.42-86.16a2.29,2.29,0,0,1,2.25-1.46l10.13.36c17.6,1,83,.06,110.86-.35,29.89-.43,58.82-11,60.18-11.55a421.81,421.81,0,0,0,45-23.29c14.37-8.76,57.7-49.62,95.93-85.67,18.82-17.75,36.59-34.51,48.48-45.12,35.88-32,55.93-33.18,56.77-33.22a2.33,2.33,0,0,1,.2,4.66c-6.6.35-26.35,7.5-53.86,32-11.85,10.57-29.6,27.31-48.39,45-38.39,36.21-81.91,77.25-96.7,86.26a426.85,426.85,0,0,1-45.63,23.61l-.1,0c-1.23.47-30.5,11.42-61.82,11.88-28,.4-93.42,1.35-111.14.34l-8.44-.3-33.81,84.63A2.33,2.33,0,0,1,835.39,1081.3Z"/><path class="cls-36" d="M1679.14,747.44a19.81,19.81,0,1,1-19.8-20A19.9,19.9,0,0,1,1679.14,747.44Z"/><path class="cls-6" d="M1630,665.64c0,51.83-41.69,93.83-93.15,93.83s-93.15-42-93.15-93.83,41.69-93.84,93.15-93.84S1630,613.84,1630,665.64Z"/><path class="cls-28" d="M1529.34,724.84h-.08a13.8,13.8,0,0,1-11.31-6.07l-38.33-57.54a13.79,13.79,0,0,1,3.74-19.09,13.56,13.56,0,0,1,19,3.77l27.07,40.66,45.94-67.46a13.61,13.61,0,0,1,19-3.6,13.84,13.84,0,0,1,3.57,19.14l-57.24,84.2A13.65,13.65,0,0,1,1529.34,724.84Z"/><g class="cls-37"><g class="cls-38"><path class="cls-6" d="M1613.44,786.14a3.83,3.83,0,0,1-1.28,4.79c-3.35,2.23-6.84,4.37-10.37,6.29a3.41,3.41,0,0,1-4.71-1.58s0,0,0-.08a3.8,3.8,0,0,1,1.53-4.93c3.36-1.84,6.68-3.85,9.86-6a3.38,3.38,0,0,1,4.85,1.15A.77.77,0,0,0,1613.44,786.14Zm-27.5,14.13c0,.12.13.25.17.38a3.78,3.78,0,0,1-2.12,4.75c-3.74,1.41-7.61,2.66-11.43,3.73a3.51,3.51,0,0,1-4.29-2.66,3.74,3.74,0,0,1,2.5-4.54c3.66-1,7.31-2.18,10.84-3.55A3.49,3.49,0,0,1,1585.94,800.27Zm-29.74,7.36a4,4,0,0,1,.34,1.2,3.65,3.65,0,0,1-3.06,4.11c-4,.47-8,.81-11.94.94a3.71,3.71,0,0,1-.22-7.41c3.79-.12,7.57-.43,11.35-.9A3.5,3.5,0,0,1,1556.2,807.63Zm-30.56.17a3.63,3.63,0,0,1,.34,2.05,3.54,3.54,0,0,1-3.86,3.3c-4-.47-7.95-1.11-11.86-1.93a3.68,3.68,0,0,1-2.76-4.36,3.48,3.48,0,0,1,4.12-2.91c3.7.77,7.48,1.37,11.26,1.79A3.48,3.48,0,0,1,1525.64,807.8Zm-29.83-7.06a3.9,3.9,0,0,1,.17,2.86,3.49,3.49,0,0,1-4.46,2.31c-3.74-1.37-7.52-2.91-11.14-4.62a3.75,3.75,0,0,1-1.78-4.88,3.4,3.4,0,0,1,4.63-1.88c3.44,1.63,7,3.08,10.58,4.41A3.29,3.29,0,0,1,1495.81,800.74Zm-27.66-13.92a3.86,3.86,0,0,1-.17,3.6,3.42,3.42,0,0,1-4.85,1.2c-3.4-2.23-6.71-4.63-9.9-7.11a3.83,3.83,0,0,1-.72-5.18,3.39,3.39,0,0,1,4.88-.77c3,2.4,6.21,4.67,9.4,6.77A3.34,3.34,0,0,1,1468.15,786.82Zm-64.77-118a4.59,4.59,0,0,1,.39,1.54c.12,4,.42,8,.89,12a3.62,3.62,0,0,1-3.06,4.11,3.57,3.57,0,0,1-3.91-3.25c-.47-4.2-.81-8.43-.94-12.63a3.66,3.66,0,0,1,3.4-3.86A3.48,3.48,0,0,1,1403.38,668.84Zm40.71,98a3.9,3.9,0,0,1-.63,4.24,3.41,3.41,0,0,1-5,0c-2.84-3-5.56-6.08-8.16-9.29a3.86,3.86,0,0,1,.39-5.22,3.34,3.34,0,0,1,4.93.43c2.46,3,5,6,7.73,8.82A3.09,3.09,0,0,1,1444.09,766.83Zm-36.2-66c.08.21.17.47.25.69,1,3.85,2.13,7.7,3.4,11.47a3.79,3.79,0,0,1-2.12,4.75,3.49,3.49,0,0,1-4.51-2.22c-1.36-4-2.55-8-3.57-12.08a3.71,3.71,0,0,1,2.47-4.53A3.44,3.44,0,0,1,1407.89,700.82Zm17,40.89a3.85,3.85,0,0,1-1.28,4.79,3.38,3.38,0,0,1-4.84-1.16c-2.13-3.55-4.17-7.23-6-11,0,0,0,0,0-.08a3.79,3.79,0,0,1,1.53-4.92A3.39,3.39,0,0,1,1419,731c1.74,3.55,3.65,7.06,5.69,10.4A2.13,2.13,0,0,1,1424.89,741.71Z"/><path class="cls-6" d="M1404.75,642.82a4.28,4.28,0,0,1,.34,2.18c-.26,1.89-.51,3.81-.68,5.74a3.55,3.55,0,0,1-3.87,3.29,3.67,3.67,0,0,1-3.1-4.11c.21-2,.42-4,.72-6a3.59,3.59,0,0,1,4-3.13A3.65,3.65,0,0,1,1404.75,642.82Z"/></g></g><g class="cls-37"><g class="cls-38"><path class="cls-6" d="M1460.37,546.28a3.79,3.79,0,0,1-1.1,4.67c-1.49,1.12-2.94,2.27-4.38,3.47a3.43,3.43,0,0,1-4.93-.64,3.88,3.88,0,0,1,.6-5.23c1.52-1.24,3-2.48,4.63-3.63a3.37,3.37,0,0,1,4.88.85A2.71,2.71,0,0,1,1460.37,546.28Z"/><path class="cls-6" d="M1662.22,599.8c.73,1.54,1.41,3.08,2.09,4.66a3.8,3.8,0,0,1-1.75,4.93,3.43,3.43,0,0,1-4.63-1.84c-1.57-3.64-3.27-7.15-5-10.58a3.81,3.81,0,0,1,1.35-5.05,3.41,3.41,0,0,1,4.76,1.46C1660.1,595.43,1661.2,597.61,1662.22,599.8Zm8.63,23a2.17,2.17,0,0,1,.21.59c1.15,4,2.13,8,2.93,12.08a3.71,3.71,0,0,1-2.71,4.4,3.49,3.49,0,0,1-4.17-2.86c-.76-3.85-1.7-7.71-2.76-11.47a3.78,3.78,0,0,1,2.34-4.63A3.48,3.48,0,0,1,1670.85,622.79Zm-22-45.85a3.9,3.9,0,0,1-1,4.62,3.41,3.41,0,0,1-4.93-.72c-2.25-3.13-4.63-6.21-7.14-9.13a3.85,3.85,0,0,1,.26-5.22,3.38,3.38,0,0,1,5,.3c2.63,3.08,5.14,6.34,7.48,9.63A1.37,1.37,0,0,1,1648.88,576.94Zm27.41,77.18a3.15,3.15,0,0,1,.34,1.37c.3,4.11.38,8.3.34,12.46a3.51,3.51,0,1,1-7-.13c0-3.94,0-7.92-.34-11.82a3.6,3.6,0,0,1,3.23-3.93A3.41,3.41,0,0,1,1676.29,654.12Zm-48.1-100.3a4,4,0,0,1-.47,4.07,3.35,3.35,0,0,1-4.93.43c-2.85-2.53-5.82-5-8.84-7.28a3.89,3.89,0,0,1-.85-5.18A3.37,3.37,0,0,1,1618,545c3.18,2.4,6.33,5,9.3,7.66A3.5,3.5,0,0,1,1628.19,553.82Zm-25-17.77a4,4,0,0,1,0,3.39,3.43,3.43,0,0,1-4.72,1.58c-3.31-1.84-6.71-3.51-10.11-5a3.78,3.78,0,0,1-1.87-4.88,3.43,3.43,0,0,1,4.59-2c3.61,1.63,7.18,3.38,10.66,5.31A3.66,3.66,0,0,1,1603.24,536.05Zm-28-11.6a3.91,3.91,0,0,1,.26,2.62,3.47,3.47,0,0,1-4.29,2.61c-3.62-1-7.27-1.88-10.93-2.61a3.75,3.75,0,0,1-2.84-4.33,3.55,3.55,0,0,1,4.08-3c3.82.73,7.69,1.68,11.47,2.75A3.55,3.55,0,0,1,1575.19,524.45Zm-29.74-4.88a4.37,4.37,0,0,1,.38,1.8,3.59,3.59,0,0,1-3.66,3.56c-3.69-.18-7.48-.18-11.17,0a3.71,3.71,0,0,1-.3-7.41c3.91-.17,7.86-.17,11.77,0A3.42,3.42,0,0,1,1545.45,519.57Zm-30,2.15a3.5,3.5,0,0,1,.3,1,3.7,3.7,0,0,1-2.8,4.32c-3.66.69-7.31,1.59-10.92,2.61a3.51,3.51,0,0,1-4.3-2.61,3.71,3.71,0,0,1,2.47-4.53c3.78-1.07,7.65-2,11.47-2.75A3.4,3.4,0,0,1,1515.44,521.72Zm-28.81,9.07a1.33,1.33,0,0,0,.09.21,3.82,3.82,0,0,1-1.87,4.88c-2.51,1.12-5,2.36-7.48,3.64-.89.47-1.74,1-2.64,1.42a3.39,3.39,0,0,1-4.71-1.59,3.75,3.75,0,0,1,1.48-5l2.77-1.49c2.55-1.33,5.22-2.61,7.86-3.81A3.4,3.4,0,0,1,1486.63,530.79Z"/><path class="cls-6" d="M1675.1,686a4.16,4.16,0,0,1,.34,2.22c-.3,2-.59,4-1,6a3.48,3.48,0,0,1-4.12,2.91,3.69,3.69,0,0,1-2.76-4.36c.34-1.88.68-3.81.94-5.7a3.5,3.5,0,0,1,4-3.08A3.56,3.56,0,0,1,1675.1,686Z"/></g></g><path class="cls-39" d="M841.1,1397.89s50.39-3.12,63.86-21.06c0,0-73.69,23.8-129.32,10.68C775.64,1387.51,812.19,1402.17,841.1,1397.89Z"/><path class="cls-39" d="M662.53,1298.79c-12-2-24.4-2.91-36.2-5.9-4.85-1.23-20.47-4.82-33.39-9.76,16.82,10.39,33.93,20.92,53,26.27,17.42,4.89,33.49,6.82,51.68,5.16,10.21-.93,20.27-5.17,30.23-6Z"/><path class="cls-33" d="M635,1294.88c25.79,6.11,91.37-2.66,122.82,32.56,27.52,30.81,32.53,72.31,83.26,70.45-34.25,1.26-64.78,10.58-90.19-20-10.34-12.45-17-26.38-28.84-37.52-12.6-11.86-26-19.55-41.79-26.68C666,1307.24,649.75,1300.82,635,1294.88Z"/><path class="cls-33" d="M1660.45,926.14s-39.73,18.05-57.29,9.81c0,0,65.91-11.71,103.06-44.28C1706.22,891.67,1684.26,917.68,1660.45,926.14Z"/><path class="cls-39" d="M1756.6,778.07c8.34-6.43,17.44-12.11,25.23-19.18,3.21-2.91,13.68-12,21.54-21-8.63,14.76-17.42,29.73-29.78,41.53-11.33,10.8-22.81,18.79-37.37,24.9-8.17,3.43-17.57,4.28-25.5,7.69Z"/><path class="cls-29" d="M1776,763.93c-17.21,15.12-70.83,35-80.56,74.67-8.51,34.68,4.48,68.39-35,87.54,26.66-12.93,53.75-18.19,60.75-51.83,2.85-13.7,2.28-27,6.8-40.34,4.81-14.16,12-25.48,21.09-37.32C1757.37,785.94,1767.17,774.44,1776,763.93Z"/><circle class="cls-40" cx="436.11" cy="1439.29" r="33.43"/><circle class="cls-40" cx="1757.04" cy="1192.84" r="18.01" transform="translate(192.42 2628.82) rotate(-76.72)"/><path class="cls-41" d="M790.13,1166.89h222a4.11,4.11,0,0,1,4.11,4.11h0a4.11,4.11,0,0,1-4.11,4.11h-222A4.12,4.12,0,0,1,786,1171h0A4.12,4.12,0,0,1,790.13,1166.89Z"/><path class="cls-41" d="M747,1192.84h222A4.11,4.11,0,0,1,973,1197h0a4.11,4.11,0,0,1-4.11,4.12H747a4.12,4.12,0,0,1-4.12-4.12h0A4.12,4.12,0,0,1,747,1192.84Z"/><path class="cls-42" d="M1576.36,394.62l-4.93,24.06c17.62,9.29,32.12,10.8,42.19,10a26.42,26.42,0,0,0,21-13.83l4.06-7.48C1611.16,432.47,1576.36,394.62,1576.36,394.62Z"/><path class="cls-14" d="M1630.67,420.61s2.84-29.71-14.28-54,.79-50.65,21.36-49.68c0,0-31.32,5.07-7.63,43.11S1635.79,413.18,1630.67,420.61Z"/><path class="cls-42" d="M1639.84,317.37c8,2.68,28.07,10.79,31.27,25.94l-7.08,2s-11.5-24.8-30.57-28.09h0A10.76,10.76,0,0,1,1639.84,317.37Z"/></g></g></svg>