<svg xmlns="http://www.w3.org/2000/svg" xmlns:xlink="http://www.w3.org/1999/xlink" viewBox="0 0 3710 3710"><defs><style>.cls-1{fill:url(#linear-gradient);}.cls-2{fill:url(#linear-gradient-2);}.cls-3{fill:url(#linear-gradient-3);}.cls-4{fill:none;}.cls-5{fill:#d8dee8;}.cls-6{isolation:isolate;}.cls-7{fill:#f4f7fa;}.cls-8{clip-path:url(#clip-path);}.cls-12,.cls-15,.cls-9{mix-blend-mode:soft-light;}.cls-10{fill:#beb8f2;}.cls-11{clip-path:url(#clip-path-2);}.cls-12,.cls-30{opacity:0.7;}.cls-13{fill:#fcfdfe;}.cls-14{clip-path:url(#clip-path-3);}.cls-15{opacity:0.5;}.cls-16{fill:url(#linear-gradient-7);}.cls-17{clip-path:url(#clip-path-4);}.cls-18,.cls-30{fill:#fff;}.cls-19{fill:url(#linear-gradient-8);}.cls-20{fill:url(#linear-gradient-9);}.cls-21{clip-path:url(#clip-path-5);}.cls-22{fill:url(#linear-gradient-10);}.cls-23{fill:#bfc8d6;}.cls-24{clip-path:url(#clip-path-6);}.cls-25,.cls-26,.cls-27{opacity:0.53;}.cls-25{fill:url(#linear-gradient-11);}.cls-26{fill:url(#linear-gradient-12);}.cls-27{fill:url(#linear-gradient-13);}.cls-28{fill:url(#linear-gradient-14);}.cls-29{fill:url(#linear-gradient-15);}.cls-31{fill:url(#linear-gradient-16);}.cls-32{fill:url(#linear-gradient-17);}.cls-33{fill:url(#linear-gradient-18);}.cls-34{fill:url(#linear-gradient-19);}.cls-35{fill:url(#linear-gradient-20);}.cls-36{fill:url(#linear-gradient-21);}.cls-37,.cls-39,.cls-48{mix-blend-mode:multiply;opacity:0.3;}.cls-37{fill:url(#linear-gradient-22);}.cls-38{fill:url(#linear-gradient-23);}.cls-39{fill:url(#linear-gradient-24);}.cls-40{fill:url(#linear-gradient-25);}.cls-41{fill:url(#linear-gradient-26);}.cls-42{fill:url(#linear-gradient-27);}.cls-43{fill:url(#linear-gradient-28);}.cls-44{fill:url(#linear-gradient-29);}.cls-45{fill:url(#linear-gradient-30);}.cls-46{fill:url(#linear-gradient-31);}.cls-47{fill:url(#linear-gradient-32);}.cls-48{fill:url(#linear-gradient-33);}</style><linearGradient id="linear-gradient" x1="1255" y1="946.22" x2="636.55" y2="2703.9" gradientUnits="userSpaceOnUse"><stop offset="0" stop-color="#e38ddd"/><stop offset="1" stop-color="#9571f6"/></linearGradient><linearGradient id="linear-gradient-2" x1="1743.45" y1="2334.15" x2="312.81" y2="-139.67" gradientUnits="userSpaceOnUse"><stop offset="0" stop-color="#ffc444"/><stop offset="1" stop-color="#f36f56"/></linearGradient><linearGradient id="linear-gradient-3" x1="1358.89" y1="948.32" x2="2102.75" y2="2172.9" xlink:href="#linear-gradient"/><clipPath id="clip-path"><path class="cls-1" d="M985.1,2852.76q170.79,2.84,342-.77c1.62,1.61,66.64-195.17-34.07-317.11-199.77-236.86-20-399.55,39.22-502.52,91.14-144,77.9-315.55-110.28-344.21-208.25-35.18-205.86-327.62-131.31-583.58,47.18-123.33-76-298-215.61-353.45-142.1-59.64-300.62,0-381.39,247.68-109.59,284.53,124.14,497.77,199.22,658.49,73.92,157.8-161.7,244.43-3.27,397.17,132.41,134.54,308,242.43,219.45,376C819,2562.22,819.54,2680.24,985.1,2852.76Z"/></clipPath><clipPath id="clip-path-2"><path class="cls-2" d="M1481.23,1911.22c23.24,36.82,46.49,64.47,70.87,99.38-180.59,32.13-348.79,96.21-531.83,129.12,66.83-230.24,154.93-345.44,22-589.57-62.41-114.56-219-322.07-198.36-453.27C867.34,947.4,973,958.61,917.79,843c-86.24-180.73-42.73-404.13,235.38-387.06,274.49,16.85,431.83,713.15,331.72,937.48C1438,1601.36,1359.84,1719,1481.23,1911.22Z"/></clipPath><clipPath id="clip-path-3"><path class="cls-3" d="M1435,1220.83c28.48,221.56-106.33,217.64-278.65,220.17,93.05,186.08,176.8,370.69,261.15,558.34,115.3-3.4,197.83-8,216-146.85,20.54-157.06,27.19-248.37,177.73-336.5s232.73-248.73,125.61-386.34c-112.74-144.82-43.46-406.74-221.64-479.54C1404.72,523.25,1405.32,990.12,1435,1220.83Z"/></clipPath><linearGradient id="linear-gradient-7" x1="-1661.88" y1="2091.63" x2="-876.91" y2="2091.63" gradientTransform="matrix(-1, 0, 0, 1, 1500, 0)" gradientUnits="userSpaceOnUse"><stop offset="0" stop-color="#ff9085"/><stop offset="1" stop-color="#fb6fbb"/></linearGradient><clipPath id="clip-path-4"><polygon class="cls-4" points="3101.21 3098.74 3101.21 1083.06 2376.92 1034.38 2376.92 3148.88 3101.21 3098.74"/></clipPath><linearGradient id="linear-gradient-8" x1="-29.04" y1="797.83" x2="595.24" y2="2195.91" gradientTransform="matrix(-1, 0, 0, 1, 1500, 0)" gradientUnits="userSpaceOnUse"><stop offset="0" stop-color="#fcb148"/><stop offset="0.05" stop-color="#fdba46"/><stop offset="0.14" stop-color="#ffc244"/><stop offset="0.32" stop-color="#ffc444"/><stop offset="0.48" stop-color="#fdb946"/><stop offset="0.78" stop-color="#f99c4d"/><stop offset="0.87" stop-color="#f8924f"/><stop offset="1" stop-color="#f8924f"/></linearGradient><linearGradient id="linear-gradient-9" x1="-91.81" y1="1557.29" x2="817.77" y2="3900.15" xlink:href="#linear-gradient-7"/><clipPath id="clip-path-5"><rect class="cls-5" x="479.81" y="1671.81" width="1882.15" height="841.27" transform="translate(3513.33 671.56) rotate(90)"/></clipPath><linearGradient id="linear-gradient-10" x1="-1096.31" y1="2090.3" x2="-102.38" y2="2096.32" xlink:href="#linear-gradient-7"/><clipPath id="clip-path-6"><polygon class="cls-4" points="2376.92 3148.88 2376.92 1034.38 1841.52 1152.65 1841.52 3033.67 2376.92 3148.88"/></clipPath><linearGradient id="linear-gradient-11" x1="71.97" y1="2139.72" x2="86.26" y2="2139.72" gradientTransform="matrix(-1, 0, 0, 1, 1500, 0)" gradientUnits="userSpaceOnUse"><stop offset="0" stop-color="#311944"/><stop offset="1" stop-color="#a03976"/></linearGradient><linearGradient id="linear-gradient-12" x1="-1246.2" y1="2093.4" x2="-1231.91" y2="2093.4" xlink:href="#linear-gradient-11"/><linearGradient id="linear-gradient-13" x1="-1601.81" y1="1742.09" x2="499.75" y2="1742.09" xlink:href="#linear-gradient-11"/><linearGradient id="linear-gradient-14" x1="-809.45" y1="502.94" x2="-1599.7" y2="2148.39" gradientTransform="matrix(-1, 0, 0, 1, 1500, 0)" gradientUnits="userSpaceOnUse"><stop offset="0" stop-color="#444b8c"/><stop offset="1" stop-color="#3e4177"/></linearGradient><linearGradient id="linear-gradient-15" x1="-767.59" y1="499.84" x2="-1558.77" y2="2147.23" gradientTransform="matrix(-1, 0, 0, 1, 1500, 0)" gradientUnits="userSpaceOnUse"><stop offset="0" stop-color="#aa80f9"/><stop offset="1" stop-color="#6165d7"/></linearGradient><linearGradient id="linear-gradient-16" x1="9.21" y1="3719.28" x2="-26.66" y2="3579.01" gradientTransform="translate(2677.54 5443.9) rotate(161.46)" xlink:href="#linear-gradient-15"/><linearGradient id="linear-gradient-17" x1="-261.57" y1="3718.79" x2="-316.44" y2="3504.2" gradientTransform="translate(2735.48 5407.06) rotate(160.17)" xlink:href="#linear-gradient-15"/><linearGradient id="linear-gradient-18" x1="-362.1" y1="3605.7" x2="-783.15" y2="3571.01" gradientTransform="translate(1485.72 5440.55) rotate(180)" xlink:href="#linear-gradient-15"/><linearGradient id="linear-gradient-19" x1="-519.01" y1="3657.93" x2="-544.54" y2="3547.86" gradientTransform="translate(1485.4 5438.77) rotate(180)" xlink:href="#linear-gradient-2"/><linearGradient id="linear-gradient-20" x1="1586.77" y1="2008.55" x2="1608.24" y2="2340.24" gradientTransform="matrix(1, 0, 0, 1, 0, 0)" xlink:href="#linear-gradient-8"/><linearGradient id="linear-gradient-21" x1="1778.58" y1="2476.98" x2="1217.73" y2="3424.45" gradientTransform="translate(-406.95 123.34) rotate(-7.86)" xlink:href="#linear-gradient"/><linearGradient id="linear-gradient-22" x1="1579.43" y1="2576.12" x2="2124.49" y2="2576.12" gradientTransform="translate(-406.95 123.34) rotate(-7.86)" xlink:href="#linear-gradient"/><linearGradient id="linear-gradient-23" x1="1466.59" y1="2251.6" x2="905.82" y2="3198.95" xlink:href="#linear-gradient"/><linearGradient id="linear-gradient-24" x1="816.88" y1="2871.64" x2="1636.38" y2="2871.64" xlink:href="#linear-gradient"/><linearGradient id="linear-gradient-25" x1="1068.97" y1="3048.52" x2="863.75" y2="3346.8" gradientTransform="matrix(1, 0, 0, 1, 0, 0)" xlink:href="#linear-gradient-8"/><linearGradient id="linear-gradient-26" x1="1187.49" y1="2454.05" x2="1197.03" y2="2119.97" gradientTransform="matrix(1, 0, 0, 1, 0, 0)" xlink:href="#linear-gradient-8"/><linearGradient id="linear-gradient-27" x1="1167.42" y1="2000.59" x2="1171.58" y2="1614.07" gradientUnits="userSpaceOnUse"><stop offset="0" stop-color="#40447e"/><stop offset="1" stop-color="#3c3b6b"/></linearGradient><linearGradient id="linear-gradient-28" x1="1142.28" y1="2202.68" x2="1050.13" y2="1922.41" gradientTransform="matrix(1, 0, 0, 1, 0, 0)" xlink:href="#linear-gradient-8"/><linearGradient id="linear-gradient-29" x1="1314.94" y1="2145.92" x2="1222.8" y2="1865.65" gradientTransform="matrix(1, 0, 0, 1, 0, 0)" xlink:href="#linear-gradient-8"/><linearGradient id="linear-gradient-30" x1="1232.22" y1="2174.61" x2="1148.56" y2="1920.14" gradientTransform="matrix(1, 0, 0, 1, 0, 0)" xlink:href="#linear-gradient-8"/><linearGradient id="linear-gradient-31" x1="2298.3" y1="964.5" x2="2688.89" y2="964.5" gradientUnits="userSpaceOnUse"><stop offset="0" stop-color="#26264f"/><stop offset="1" stop-color="#444b8c"/></linearGradient><linearGradient id="linear-gradient-32" x1="2309.25" y1="964.99" x2="2677.93" y2="964.99" gradientTransform="matrix(1, 0, 0, 1, 0, 0)" xlink:href="#linear-gradient-8"/><linearGradient id="linear-gradient-33" x1="2309.25" y1="965.14" x2="2553.51" y2="965.14" gradientTransform="matrix(1, 0, 0, 1, 0, 0)" xlink:href="#linear-gradient-8"/></defs><g class="cls-6"><g id="Illustration"><path class="cls-7" d="M741.71,1090.73C1322.64,372.31,2698,332.16,3102.36,902c222.82,314,129.71,783.29,83.77,1014.85-84.55,426.14-293,700.48-338.55,758.67-110.46,141.21-378.76,484.19-782.44,562.59C1375.38,3372,514.72,2690,467,1920.47,439.54,1476.83,691.49,1152.84,741.71,1090.73Z"/><path class="cls-1" d="M985.1,2852.76q170.79,2.84,342-.77c1.62,1.61,66.64-195.17-34.07-317.11-199.77-236.86-20-399.55,39.22-502.52,91.14-144,77.9-315.55-110.28-344.21-208.25-35.18-205.86-327.62-131.31-583.58,47.18-123.33-76-298-215.61-353.45-142.1-59.64-300.62,0-381.39,247.68-109.59,284.53,124.14,497.77,199.22,658.49,73.92,157.8-161.7,244.43-3.27,397.17,132.41,134.54,308,242.43,219.45,376C819,2562.22,819.54,2680.24,985.1,2852.76Z"/><g class="cls-8"><g class="cls-9"><path class="cls-10" d="M1138.76,2886.29c.28-1.79-47-441.48-173.55-880.7-16.07-70.44-34.27-141.8-51.87-210.8C815.3,1410.49,722.71,1047.5,928,686.7l-6.15-2.64C715.6,1046.55,808.43,1410.44,906.7,1795.7c17.6,69,35.79,140.3,51.88,210.81,127.19,441.61,173.46,876.32,173.43,879Z"/><path class="cls-10" d="M824.93,1439l5.53-3c-108.62-132.34-236.22-316.73-304.78-415.79C470.19,940,469.9,940,466.41,940l.13,2.83-1.91,2.2c3.24,2.73,26.18,35.87,55.22,77.83C588.45,1121.94,716.15,1306.46,824.93,1439Z"/><path class="cls-10" d="M811.31,1275.77c44.1-127.61,121.2-205,178.11-247.43,62-46.22,116.79-63.83,123.24-63.89l-.16-2.2,2.77-2.59c-1.55-1.17-3.52-1-6.63-.38-44.46,9.38-226.31,90.26-303.85,314.67Z"/><path class="cls-10" d="M1030.31,2290.74l6.79.27c-.83-267.67,248.34-482.68,355.51-562.7,5.75-4.3,7.61-5.7,8.32-6.46l-5.44-3.62,2.72,1.81-2.7-1.82c-.53.53-3.79,3-7.56,5.78-77.29,57.71-144.32,120.34-199.24,186.17C1083.22,2036.62,1029.93,2164.66,1030.31,2290.74Z"/><path class="cls-10" d="M610.73,1907.8l.16-2.78-1.44,2.47-1.92-3.06,2.88-2.27h0c4.65.22,285,52.41,393.79,250.67L998.1,2155C890.39,1958.7,613.42,1908.11,610.73,1907.8Zm.17-2.81,1.44-2.49Z"/><path class="cls-10" d="M1129.82,2814.28c5.11-53.58,40.83-141.19,181.94-254.32,8-6.42,8-6.42,8-7.9l-6.79-.13,3.4.07-2.88-1.58c-.48.51-3.28,2.76-6.51,5.35-142.56,114.29-178.68,203.26-183.89,257.78Z"/><path class="cls-10" d="M1108.76,2709.23l6.69-.66c-19.85-99.61-169.87-191.3-257.52-237.08-2.78-1.45-4.57-2.38-5.21-2.76l-3.77,4.54c.68.41,2.6,1.42,5.59,3C941.16,2521.5,1089.37,2611.93,1108.76,2709.23Z"/></g></g><path class="cls-2" d="M1481.23,1911.22c23.24,36.82,46.49,64.47,70.87,99.38-180.59,32.13-348.79,96.21-531.83,129.12,66.83-230.24,154.93-345.44,22-589.57-62.41-114.56-219-322.07-198.36-453.27C867.34,947.4,973,958.61,917.79,843c-86.24-180.73-42.73-404.13,235.38-387.06,274.49,16.85,431.83,713.15,331.72,937.48C1438,1601.36,1359.84,1719,1481.23,1911.22Z"/><g class="cls-11"><g class="cls-12"><path class="cls-13" d="M1268.14,2056.49l3.95-.13c-2.19-67.6.92-136.21,3.93-202.55l1.13-25.21c2.35-53.37,3.5-101.15,4.52-143.3.57-23.62,1.11-46.06,1.81-67.75,2.14-66.36,3.77-112.79,4.58-135.88l.52-15.24c5.82-182-53.22-431.37-84.94-565.35-3.43-14.5-6.5-27.47-9.07-38.62-44.19-191.66-67.23-396.38-68.46-608.46l-4,0c1.24,212.38,24.3,417.39,68.57,609.33,2.57,11.16,5.64,24.13,9.07,38.64,31.68,133.81,90.64,382.87,84.84,564.31l-.53,15.24c-.8,23.08-2.43,69.52-4.57,135.89-.7,21.69-1.24,44.15-1.81,67.77-1,42.14-2.17,89.9-4.52,143.23l-1.13,25.2C1269.06,1920.05,1266,1988.73,1268.14,2056.49Z"/><path class="cls-13" d="M1281.57,1720.18l4-.07c-1.88-120.43-52.6-261.14-146.68-406.91-78.37-121.41-184.78-242.06-292-331l-2.52,3C1052.11,1157.65,1277.54,1461.18,1281.57,1720.18Z"/><path class="cls-13" d="M1205.39,924.34l3.5-1.84c-48.5-92.16-108.92-178.72-167.36-262.43C1001.54,602.78,960.19,543.54,923,483l-3.37,2.07c37.25,60.64,78.64,119.93,118.66,177.26C1096.66,746,1157,832.4,1205.39,924.34Z"/><path class="cls-13" d="M1274.14,1254c23.08-142.92,118.79-323.81,204.81-387.11l-2.34-3.19c-86.72,63.81-183.16,245.9-206.38,389.67Z"/></g></g><path class="cls-3" d="M1435,1220.83c28.48,221.56-106.33,217.64-278.65,220.17,93.05,186.08,176.8,370.69,261.15,558.34,115.3-3.4,197.83-8,216-146.85,20.54-157.06,27.19-248.37,177.73-336.5s232.73-248.73,125.61-386.34c-112.74-144.82-43.46-406.74-221.64-479.54C1404.72,523.25,1405.32,990.12,1435,1220.83Z"/><g class="cls-14"><g class="cls-15"><path class="cls-13" d="M1347.08,1746.07c133.89-132.48,241.77-246.59,310.52-407.33,65.81-153.83,74.39-298.34,28.68-483.19-23.68-95.78-29.82-167.08-36.48-264.93l-4,.26c6.68,98.06,12.83,169.52,36.59,265.61,45.48,184,37,327.72-28.47,480.7-68.48,160.07-176.09,273.9-309.67,406.07Z"/><path class="cls-13" d="M1637.48,1934.22l2.09-3.35c-52.6-32.81-105.18-56.14-160.74-71.33-28.43-7.77-55.7-10.31-87.91-11.72l-.17,4c31.94,1.4,59,3.91,87,11.59C1533,1878.44,1585.21,1901.62,1637.48,1934.22Z"/><path class="cls-13" d="M1610,1434.17c100.9-100.22,246.38-165.7,409.62-184.38l-.45-3.93c-164.12,18.78-310.43,84.66-412,185.51Z"/><path class="cls-13" d="M1711.32,1060.21l3.86-.83c-4.42-20.71-100.38-198.36-129.69-252.31-60.64-111.64-127.39-231-134.15-237.6l-2.75,2.84C1454.2,577.76,1515.3,686.13,1582,809,1642.28,919.9,1707.89,1044.17,1711.32,1060.21Z"/></g></g><polygon class="cls-16" points="2376.92 3255 3161.88 3195.29 3161.88 986.39 2376.92 928.26 2376.92 3255"/><polygon class="cls-5" points="3085.84 1791.87 3085.84 2730.6 3101.21 2730.6 3101.21 2970.85 2376.92 2970.85 2376.92 1791.87 3085.84 1791.87"/><g class="cls-17"><path class="cls-18" d="M2142,767.27s-.77,508.15-114.72,741.41-156.82,460.37-71.07,593.34,420.74-69.93,420.74-69.93,158.06,111.52,229.51,350.14,535.92,437.47,636,370.2S3299.56,884.3,3299.56,884.3Z"/><path class="cls-18" d="M3263.83,2889.37s-281.45,131.24-494.43,10-392.48-339.22-392.48-339.22-216.61,132.73-333,125.31-202.43-380.74-202.43-380.74-192.6-95.72-278.35-289.93-349-405.72-493.05-450-228.66,38.41-228.66,38.41L877.19,3296l2224,116.46Z"/><path class="cls-19" d="M1996.33,830.47s75.89,348.18,0,440.47-133.7,356.42-154.81,428-185.46,228.25-271.21,85.6-214.37-246.7-278.68-294.71-471.61-97.32-493-133.4-35.73-445.53-35.73-445.53Z"/></g><rect class="cls-20" x="926.02" y="1058.25" width="915.49" height="2069.83"/><rect class="cls-5" x="479.81" y="1671.81" width="1882.15" height="841.27" transform="translate(3513.33 671.56) rotate(90)"/><g class="cls-21"><path class="cls-18" d="M2142,767.27s-.77,508.15-114.72,741.41-156.82,460.37-71.07,593.34,420.74-69.93,420.74-69.93,158.06,111.52,229.51,350.14,535.92,437.47,636,370.2S3299.56,884.3,3299.56,884.3Z"/><path class="cls-18" d="M3263.83,2889.37s-281.45,131.24-494.43,10-392.48-339.22-392.48-339.22-216.61,132.73-333,125.31-202.43-380.74-202.43-380.74-192.6-95.72-278.35-289.93-349-405.72-493.05-450-228.66,38.41-228.66,38.41L877.19,3296l2224,116.46Z"/><path class="cls-18" d="M1996.33,830.47s75.89,348.18,0,440.47-133.7,356.42-154.81,428-185.46,228.25-271.21,85.6-214.37-246.7-278.68-294.71-471.61-97.32-493-133.4-35.73-445.53-35.73-445.53Z"/></g><polygon class="cls-22" points="1841.52 3128.08 2376.92 3255 2376.92 928.26 1841.52 1058.25 1841.52 3128.08"/><polygon class="cls-23" points="1841.52 2718.21 1841.52 1175.54 2030.04 1111.01 2123.55 1090.35 2139.68 1088.45 2139.68 2029.65 2376.92 2029.65 2376.92 2718.21 1841.52 2718.21"/><g class="cls-24"><path class="cls-5" d="M2142,767.27s-.77,508.15-114.72,741.41-156.82,460.37-71.07,593.34,420.74-69.93,420.74-69.93,158.06,111.52,229.51,350.14,535.92,437.47,636,370.2S3299.56,884.3,3299.56,884.3Z"/><path class="cls-5" d="M3263.83,2889.37s-281.45,131.24-494.43,10-392.48-339.22-392.48-339.22-216.61,132.73-333,125.31-202.43-380.74-202.43-380.74-192.6-95.72-278.35-289.93-349-405.72-493.05-450-228.66,38.41-228.66,38.41L877.19,3296l2224,116.46Z"/><path class="cls-5" d="M1996.33,830.47s75.89,348.18,0,440.47-133.7,356.42-154.81,428-185.46,228.25-271.21,85.6-214.37-246.7-278.68-294.71-471.61-97.32-493-133.4-35.73-445.53-35.73-445.53Z"/></g><rect class="cls-25" x="1413.74" y="1151.37" width="14.29" height="1976.71"/><rect class="cls-26" x="2731.92" y="1058.72" width="14.29" height="2069.35"/><polygon class="cls-27" points="1000.25 1812.89 1842.36 1812.89 1843.17 1812.7 2377.45 1685.71 3100.61 1746.79 3101.81 1732.55 2376.38 1671.28 2375.26 1671.55 1840.68 1798.6 1000.25 1798.6 1000.25 1812.89"/><path class="cls-28" d="M2109.16,990.2c0,199.61,261,678.87,369.25,846,18.4,28.41,94.07,23.13,112.47-5.28,108.22-167.08,403.38-641.06,403.38-840.67,0-244.41-198.14-442.54-442.55-442.54S2109.16,745.79,2109.16,990.2Z"/><path class="cls-29" d="M2061.12,990.2c0,199.61,295.16,673.59,403.38,840.67,18.39,28.41,59.94,28.41,78.33,0,108.23-167.08,403.38-641.06,403.38-840.67,0-244.41-198.13-442.54-442.54-442.54S2061.12,745.79,2061.12,990.2Z"/><circle class="cls-30" cx="2495.6" cy="998.04" r="317.1" transform="translate(25.22 2056.98) rotate(-45)"/><circle class="cls-30" cx="2495.6" cy="998.05" r="298.21" transform="translate(25.22 2056.98) rotate(-45)"/><path class="cls-31" d="M1734.22,1987.46s-3.39-74.71-18.61-109.33c-52.68,14.64-303.37,96.34-382.62,122.23-20.44,6.68-30.59,30.27-20.33,49.16.1.2.21.4.32.59l.32.58c9.31,16.31,28.74,23.94,47,19.31C1523.05,2028.6,1560.8,2032.73,1734.22,1987.46Z"/><path class="cls-32" d="M2050.79,1948.54s-28.14-138.49-57.61-201.62c-146.9,47.91-346.78,127.45-450.29,163.38a46,46,0,0,0-30.6,38.27,93.62,93.62,0,0,0,35,84.6,46,46,0,0,0,39.8,8.8C1830,1982.24,1800.45,2010.46,2050.79,1948.54Z"/><ellipse class="cls-33" cx="2014.78" cy="1848.66" rx="58.35" ry="106.18" transform="translate(-507.62 793.03) rotate(-19.83)"/><ellipse class="cls-34" cx="2019.72" cy="1846.87" rx="40.47" ry="82.85" transform="translate(-506.73 794.6) rotate(-19.83)"/><path class="cls-35" d="M1647.44,2112.86s-28.71-15.46-56.44-29.22-25-39.33-47.28-63.21l-22.3-23.89s26.42-9.33,41.84,14.43,46,25.61,46,25.61l22.14-5.25,25,55.53Z"/><path class="cls-36" d="M1648.47,2054.49c195.26-11.08,359.61,112.06,391.67,265.64,43.2,206.92-162.4,427.86-376.54,408-191.63-17.74-381.41-235.39-335.5-467,33.38-12.88,109.79-16.79,168.85-18.22,165.16-4,278.36,96.59,293.94,77.61,9.09-11.08-18.53-58.76-171.2-213.84Z"/><path class="cls-37" d="M2040.14,2320.13c-17.81-85.32-76.47-161.23-158.56-210,40.7,38.58,64.23,70.51,76.47,97,5.77,12.5,12.15,36.35,8.79,64.58-7.27,61.26-58.56,75.19-106.45,148-49.4,75.1-23.6,104.05-59.33,128.63-74.65,51.35-201.31-65.33-253.68-22.81-20.58,16.71-31.4,59.42,4,169.39,35.16,18,73.08,29.58,112.23,33.2C1877.74,2748,2083.34,2527.05,2040.14,2320.13Z"/><path class="cls-38" d="M967.54,3091q-5.84,18.72-11.68,37.44c-27.08,7.54-166.08,43.28-299.08-36.59-128.54-77.19-182.43-220.94-179.07-335.88,7.8-266.91,325.13-406.86,360.84-422,95.85-40.65,191.44-50.67,346.1-66.89,116.93-12.25,175.39-18.38,211.88-4.06,178.44,70,242.31,394.94,232.09,573.39-6,104.78-39.81,198.46,1.76,319.08,6.84,19.84,15.5,39.78,6.37,58.86-25.16,52.56-146.13,16.73-346.81,20.68-202.25,4-284.66,44.42-318.17-3.18-29-41.22,14.58-97.38,38.18-194.08,21.85-89.52,28.48-221.54-44.54-402.49-14.25,9-109.75,71.58-125.68,190.9C826.1,2928.26,876.11,3031.7,967.54,3091Z"/><path class="cls-39" d="M1375.85,3075.91c-38.9-84.14,14.82-166.35-49.32-251.36-52-68.88-106.38-40.28-190.9-114.54-111.38-97.86-91.66-213.21-151.13-221.13-64.11-8.54-151.08,117-165.45,238.63-7.46,63.2,5.61,117.43,19.52,155.12a253.84,253.84,0,0,1,1.16-56.49c15.93-119.32,111.43-181.89,125.68-190.9,73,181,66.39,313,44.54,402.49-23.6,96.7-67.19,152.86-38.18,194.08,33.51,47.6,115.92,7.16,318.17,3.18,199.76-3.93,320.52,31.54,346.44-20C1469.08,3188.84,1401.86,3132.17,1375.85,3075.91Z"/><path class="cls-40" d="M946.68,3096.29s75.23-41.88,100-39.47,49.91,50.9,60.68,60.45-38.27,18.6-60.68,9.3-67.54,27.41-93.51,8.67S946.68,3096.29,946.68,3096.29Z"/><path class="cls-41" d="M1172.37,2121s7,154.74-130.45,162.27c0,0,164.33,69.85,204.59,80.44s97-105.62,97-105.62L1299.82,2247a55.89,55.89,0,0,1-40-38.88c-4.61-16.26-8.23-35.65-5.07-50.15C1261.31,2127.76,1172.37,2121,1172.37,2121Z"/><path class="cls-42" d="M1272,2070.57c13.77-21.12,41.34-63.37,26.32-87.28-11.24-17.89-37.6-11.64-48.49-33.25-8.19-16.28,3.62-26-2.77-43-10.06-26.6-56-46.42-84.51-33.25-29.75,13.76-18.91,53.59-54,73.43-24.14,13.64-38.65.1-56.8,15.24-21.31,17.77-23.23,54.73-15.24,80.35,7.47,23.92,23.21,36.74,53.65,60.84,40.33,31.91,60.49,47.87,86.36,47C1220.56,2149.33,1249.87,2104.42,1272,2070.57Z"/><path class="cls-43" d="M1137.11,2103.75s-30.08-26.65-51.06-13.8,35.09,67.36,63.41,60.17Z"/><path class="cls-44" d="M1284.34,2020.36c-16.1-.25-9.49,34.58-9.49,34.58l9.49,55.36C1316.44,2088.06,1300.44,2020.6,1284.34,2020.36Z"/><path class="cls-45" d="M1266.41,2023.85c22.31,33.22,20.88,69.27,19.61,80.82-2.56,23.2-6.94,63-35.84,77.87-34.38,17.69-79.14-10-100.72-32.42-27.58-28.64-45.08-77.33-27.51-100.43,6.45-8.49,11.77-5.82,37.19-17,46.8-20.53,56.34-41.69,76.78-37.43C1249.07,1998,1256.55,2009.16,1266.41,2023.85Z"/><path class="cls-46" d="M2323.57,1136.87a25.08,25.08,0,0,1-21.89-37.67l170-294.46a25.28,25.28,0,0,1,43.78,0l170,294.5a25,25,0,0,1-21.89,37.6Z"/><path class="cls-47" d="M2676,1119.39a14.63,14.63,0,0,1-12.4,7.47H2323.56a14.72,14.72,0,0,1-12.39-21.95l170-294.57a14.35,14.35,0,0,1,9.65-6.93,13.85,13.85,0,0,1,2.74-.29,14.32,14.32,0,0,1,12.4,7.15l170,294.65A14.64,14.64,0,0,1,2676,1119.39Z"/><path class="cls-48" d="M2485.64,1092.46c-36.38,15.1-60.88,23.28-76.18,34.4h-85.9a14.72,14.72,0,0,1-12.39-21.95l170-294.57a14.35,14.35,0,0,1,9.65-6.93c-14.91,29.41-35.44,90.34,15.47,139.23C2576.21,1009.75,2567.75,1058.38,2485.64,1092.46Z"/><path class="cls-18" d="M2500.91,1017.1l-14.82-.36a8.21,8.21,0,0,1-7.76-7.78l-5.42-104.39a6.73,6.73,0,0,1,2.14-5.38,7.07,7.07,0,0,1,5.65-1.78l25.52,1.78a7.78,7.78,0,0,1,7.6,8.17l-5.28,102.48A7.56,7.56,0,0,1,2500.91,1017.1Z"/><path class="cls-18" d="M2478.05,1042.6c3.69-3.54,8.9-5.25,15.59-5.14q10.35.16,15.72,5.45t5.35,15.4q0,9.76-5.47,15.13t-15.6,5.38q-9.91,0-15.53-5.57t-5.63-15.28Q2472.48,1047.92,2478.05,1042.6Z"/></g></g></svg>