<svg xmlns="http://www.w3.org/2000/svg" viewBox="0 0 703.03 640.35"><defs><style>.cls-1{fill:#ddd6fe;}.cls-2{fill:#fafafa;}.cls-3{fill:#a5b4fc;}.cls-4{fill:#e0e0e0;}.cls-5{fill:#10b981;}.cls-6{fill:#4338ca;}.cls-7{fill:#fde047;}.cls-8{fill:#fed7aa;}.cls-9{fill:#fff;}.cls-10{fill:#263238;}.cls-11{fill:#eef2ff;}.cls-12{fill:#e8505b;}.cls-13{font-size:23px;font-family:FuturaBT-Heavy, Futura Hv BT;font-weight:800;}.cls-14{letter-spacing:-0.04em;}.cls-15{font-size:14px;font-family:FuturaBT-Light, Futura Lt BT;font-weight:300;}.cls-16{fill:#ffbe9d;}.cls-17{fill:#eb996e;}.cls-18{fill:#455a64;}.cls-19{fill:#c7d2fe;}.cls-20{opacity:0.3;}.cls-21{fill:#22c55e;}.cls-22{opacity:0.2;}</style></defs><g id="Background_Complete" data-name="Background Complete"><rect class="cls-1" x="487.96" y="48.33" width="146.15" height="138.61" rx="6.79" transform="translate(-12.16 124.1) rotate(-12.49)"/><path class="cls-2" d="M589.45,132.71a5.7,5.7,0,0,1-1,.28l-2.75.67-10.2,2.39-34.29,7.8-.28.06-.1-.27-2.07-5.51c-6-16.13-11.37-30.54-14.87-39.95l.24.13-9.16,2-2.45.49a5.13,5.13,0,0,1-.85.13,5.6,5.6,0,0,1,.83-.25L515,100l9.12-2.14.17,0,.07.17,15.1,39.87,2.07,5.51-.38-.21,34.34-7.58,10.24-2.19,2.78-.57A5.65,5.65,0,0,1,589.45,132.71Z"/><path class="cls-2" d="M537.55,133.84a.75.75,0,0,1,.24-.08l.7-.19,2.75-.67,10.31-2.4,35.59-8.1-.25.33c-.29-6.23-.6-13-.92-20-.16-3.58-.32-7.11-.47-10.47l.4.31-42,9.29-12.46,2.69-3.36.7-.87.16a1.73,1.73,0,0,1-.3,0,.87.87,0,0,1,.29-.1l.86-.22,3.33-.81,12.41-2.88,42-9.51.38-.09,0,.39c.16,3.36.32,6.89.48,10.47.32,7,.62,13.72.9,20V123l-.26,0-35.64,7.87-10.35,2.22-2.77.57-.72.13A.79.79,0,0,1,537.55,133.84Z"/><path class="cls-2" d="M556.19,153.92c-.06,0-.16-.42-.53-1.09a5,5,0,0,0-2.34-2.11A4.66,4.66,0,1,0,555,158a4.94,4.94,0,0,0,1.21-2.9c.05-.77,0-1.2,0-1.21a2.51,2.51,0,0,1,.24,1.21,4.9,4.9,0,0,1-1.11,3.2,5.16,5.16,0,0,1-4.63,1.88,5.23,5.23,0,0,1-2.15-9.63,5.16,5.16,0,0,1,5-.28,4.92,4.92,0,0,1,2.37,2.42A2.48,2.48,0,0,1,556.19,153.92Z"/><path class="cls-2" d="M587.25,147c-.06,0-.16-.42-.53-1.09a5,5,0,0,0-2.34-2.11,4.66,4.66,0,1,0,1.64,7.31,4.92,4.92,0,0,0,1.21-2.9c0-.77,0-1.2,0-1.21a2.54,2.54,0,0,1,.24,1.22,4.89,4.89,0,0,1-1.11,3.19,5.16,5.16,0,0,1-4.63,1.88,5.23,5.23,0,0,1-2.15-9.63,5.16,5.16,0,0,1,5-.28,4.92,4.92,0,0,1,2.37,2.42A2.48,2.48,0,0,1,587.25,147Z"/><path class="cls-3" d="M595.86,84.92A14.11,14.11,0,1,1,579,74.23,14.11,14.11,0,0,1,595.86,84.92Z"/><path class="cls-4" d="M588.42,81.19a12.75,12.75,0,0,1-1.29,2.62c-.87,1.58-2.11,3.73-3.51,6.09-.53.87-1,1.71-1.51,2.51l-.16.26-.27-.15c-3.56-2-6.09-3.47-6-3.61A46.59,46.59,0,0,1,582,92l-.43.12,1.49-2.52c1.4-2.36,2.7-4.48,3.68-6A12.68,12.68,0,0,1,588.42,81.19Z"/><path class="cls-4" d="M114.09,243.94c-2.56-9.06-14.34-8.18-14.34-8.18l.32,6.3c6.81-1.17,11.05,6.81,11.05,6.81Z"/><path class="cls-5" d="M287.07,139.29c13.67,4.14,22.17-11.62,22.17-11.62l-8.31-4.73c-4.07,9.65-17.72,8.53-17.72,8.53Z"/><path class="cls-4" d="M400.51,223.89c-2.65-7.53-12.57-6.17-12.57-6.17l.61,5.32c5.7-1.35,9.7,5.18,9.7,5.18Z"/><path class="cls-6" d="M228.51,65.4c-2.64-7.53-12.57-6.17-12.57-6.17l.61,5.32c5.7-1.35,9.7,5.18,9.7,5.18Z"/><path class="cls-6" d="M125.38,143.8c-2.65-7.54-12.57-6.17-12.57-6.17l.61,5.32c5.7-1.36,9.7,5.17,9.7,5.17Z"/><path class="cls-7" d="M100.5,73.35c-7.88,1.29-8.26,11.3-8.26,11.3l5.34.33c-.34-5.85,6.79-8.66,6.79-8.66Z"/><path class="cls-7" d="M43.76,307.78c13.67,4.14,22.17-11.62,22.17-11.62l-8.31-4.74C53.55,301.08,39.9,300,39.9,300Z"/><path class="cls-5" d="M433.05,140.16c.93-6.32-6.62-9-6.62-9l-1.55,4c4.55,1.15,5,7.27,5,7.27Z"/><path class="cls-7" d="M387.62,70.66c-5.33,3.54-2.31,11-2.31,11l4-1.51c-2.18-4.16,2.1-8.56,2.1-8.56Z"/><polygon class="cls-8" points="618.79 212.29 600.34 266.63 654.9 277.47 658.04 220.09 618.79 212.29"/><path class="cls-9" d="M652,227.31a3.88,3.88,0,0,1-.62,1.56,15.63,15.63,0,0,1-2.74,3.65,14.87,14.87,0,0,1-5.78,3.6,16.24,16.24,0,0,1-8.33.43,16.57,16.57,0,0,1-7.62-3.43,13.32,13.32,0,0,1-3.9-5.58,15.27,15.27,0,0,1-.94-4.48,3.61,3.61,0,0,1,.13-1.67,25.38,25.38,0,0,0,1.48,5.87,13.27,13.27,0,0,0,3.84,5.14,16.29,16.29,0,0,0,7.19,3.14,16,16,0,0,0,7.86-.32,14.89,14.89,0,0,0,5.57-3.23A29.35,29.35,0,0,0,652,227.31Z"/></g><g id="Desk"><path class="cls-10" d="M671.49,604.35c0,.2-142.29.36-317.78.36s-317.81-.16-317.81-.36S178.17,604,353.71,604,671.49,604.15,671.49,604.35Z"/></g><g id="Screen"><rect class="cls-11" x="59.25" y="176.6" width="338.3" height="264.83"/><path class="cls-10" d="M397.55,441.43c0-2.49-.12-105.07-.3-264.83l.3.3L59.28,177h0l.36-.36c0,95.5,0,185.81,0,264.83l-.33-.32,338.3.32-338.3.33h-.32v-.33c0-79,0-169.33,0-264.83v-.36h.39l338.27.06h.3v.3C397.67,336.36,397.55,439,397.55,441.43Z"/><path class="cls-5" d="M231.2,300.47a32.63,32.63,0,1,1,32.64-32.63A32.67,32.67,0,0,1,231.2,300.47Zm0-61.9a29.27,29.27,0,1,0,29.27,29.27A29.3,29.3,0,0,0,231.2,238.57Z"/><path class="cls-5" d="M228.84,277.9a1.7,1.7,0,0,1-1.12-.42c-2.85-2.52-7.73-6.87-8.36-7.81a1.69,1.69,0,0,1,2.79-1.9c.45.58,3.54,3.41,6.65,6.16l16.52-15.68a1.68,1.68,0,1,1,2.32,2.44L230,277.43A1.7,1.7,0,0,1,228.84,277.9Z"/><path class="cls-10" d="M397.55,202.47c0,.2-75.55.36-168.72.36s-168.73-.16-168.73-.36,75.53-.36,168.73-.36S397.55,202.27,397.55,202.47Z"/><circle class="cls-12" cx="71.22" cy="189.17" r="1.96"/><circle class="cls-7" cx="78.55" cy="189.17" r="1.96"/><path class="cls-5" d="M87.73,189.17a2,2,0,1,1-2-2A2,2,0,0,1,87.73,189.17Z"/><text class="cls-13" transform="translate(98.79 338.66)"><tspan class="cls-14">P</tspan><tspan x="11.97" y="0">esanan berhasil dibuat</tspan></text><text class="cls-15" transform="translate(120.07 362.5)">satu langkah lagi untuk mendapatkan<tspan x="58.58" y="16.8">produk impianmu</tspan></text></g><g id="Character"><path class="cls-16" d="M619.94,354.52s16.84-10.24,20.64-7.23c5.47,4.34,7.3,11.68,7.3,11.68s8.89-33.92,17.38-32.64c4.86.74,2.48,4.53.29,9.3-2,4.42-5.48,20.64-5.48,20.64s16.09-19.09,20.82-18.74c3.66.26,4.19,3.48-1.08,8.64s-14,21.42-14,21.42,11.27-10.51,15.93-10.57c3.71,0,6.11,2.54,1.31,6.71s-12.08,7.3-16,14.85c-4.79,9.31-15,32.5-15,32.5l-35.69-12.64s-5.81-23.67-6-29.42c0,0,.49-12.16.42-14.32s5.67-2.72,7.41,1.43.95,8.52,1.66,11.28,2,5.33,4,6.56,7.16,1.32,8.47-.21,2.91-6,3.25-8.7a39.22,39.22,0,0,0-.1-7.06S620.67,364,619.94,354.52Z"/><path class="cls-16" d="M219,465l-24.8-9.29s-25.25-14.78-29.93-9.53c0,0-5-2.38-7.21,2.95-1.28,3.08,3,7.57,3,7.57s-1.32,1.33.77,5.86,26.05,18.83,26.05,18.83,31.16,17,43.76,25.11l21.74-29.56-3-1.13s-1.8-14.73-7.83-18.66c-6.56-4.28-14.48-15.85-16.22-20.38s-10.11-2.44-8.71,7,8.71,11.85,8,18.13S219,465,219,465Z"/><path class="cls-17" d="M180.94,468.42c-.1.18-4.93-2.35-10.79-5.63s-10.53-6.09-10.44-6.26,4.93,2.34,10.79,5.63S181,468.25,180.94,468.42Z"/><path class="cls-17" d="M193,461.45a33.37,33.37,0,0,1-4.45-1.77c-2.71-1.18-6.43-2.87-10.45-4.93a113.3,113.3,0,0,1-10-5.74c-1.23-.82-2.22-1.5-2.88-2a5,5,0,0,1-1-.84,44.1,44.1,0,0,1,4.13,2.42c2.54,1.5,6.1,3.48,10.11,5.53s7.68,3.81,10.34,5.11A30.38,30.38,0,0,1,193,461.45Z"/><path class="cls-17" d="M198.26,475.11a14.68,14.68,0,0,1-2.2-1.19l-5.84-3.49-.07,0,0-.08a84.23,84.23,0,0,0-4.21-8.06,20,20,0,0,0-3.16-4.17,4,4,0,0,0-4.88-.36,2.21,2.21,0,0,0-.78.71.5.5,0,0,1,0,.16l.1.31c.07.2.14.41.22.62.3.83.63,1.64.95,2.44.65,1.6,1.29,3.15,1.9,4.63l3.35,8,0-.07,5,5.84,1.33,1.63a2.77,2.77,0,0,1,.43.6s-.21-.15-.55-.5l-1.44-1.52-5.17-5.68,0,0,0-.05c-1-2.31-2.21-5-3.47-7.95l-1.93-4.63c-.33-.81-.66-1.62-1-2.46-.07-.22-.15-.42-.22-.65l-.11-.33a1.89,1.89,0,0,1-.07-.5,1.58,1.58,0,0,1,.5-.73,4.27,4.27,0,0,1,.6-.45,4.66,4.66,0,0,1,5.73.43,19.85,19.85,0,0,1,3.27,4.37,74.71,74.71,0,0,1,4.12,8.19l-.1-.12,5.72,3.69A16.68,16.68,0,0,1,198.26,475.11Z"/><path class="cls-17" d="M223.12,475.35a14.72,14.72,0,0,1-3-.75,30.51,30.51,0,0,0-7.34-1.29,13.39,13.39,0,0,0-7.06,1.73,28,28,0,0,0-2.45,1.88,5.6,5.6,0,0,1,2.17-2.31,12.67,12.67,0,0,1,7.36-2,24.43,24.43,0,0,1,7.47,1.53A12.21,12.21,0,0,1,223.12,475.35Z"/><path class="cls-17" d="M221.26,468.8c.16.12-.45,1.2-1,2.57s-1,2.56-1.19,2.52-.12-1.34.53-2.81S221.11,468.68,221.26,468.8Z"/><path class="cls-10" d="M364.19,350.91c1.71-11.69,15.32-28.45,27.36-28.47a31.11,31.11,0,0,1-.25-34.19c4.64-7,12.14-12.07,15.32-19.78,3.59-8.72.83-18.57,1.18-28,.5-13.76,7.66-26.33,14.63-38.28,6.39-11,14.17-22.94,26.74-25.63,7.95-1.7,16.2.81,23.66,4,35.72,15.22,63.49,47.28,73,84.29,2.28,8.87,3.81,18.45,10,25.3,6.54,7.25,18,11.19,20,20.68,1.4,6.8-3,13.64-2.31,20.55.55,5.79,11.4,22.67,13.9,27.94,4.3,9.09,2.75,18.9-1.64,27.95S570.2,405.13,560.3,407.6L449.59,370.71c-10.42,5.93-20.79,28.86-32.75,30.27s-26.55,6.62-38-6C366.73,381.81,362.48,362.59,364.19,350.91Z"/><path class="cls-10" d="M547.76,240.79c-1.24,9.26,1.3,24.58,6.37,32.5,3.4,5.31,9.07,8.77,14.66,11.8s11.46,6,15.7,10.65,6.51,11.73,3.68,17.35c10,3.72,14.45,16.43,10.79,26.25s-13.69,16.44-24.17,18.4L529.12,344l-10-58.27,26.35-45"/><path class="cls-18" d="M553.37,300.19a6.48,6.48,0,0,1,.89.39,25.28,25.28,0,0,1,2.49,1.3,32.93,32.93,0,0,1,8,6.67,36.67,36.67,0,0,1,4.26,5.92,38,38,0,0,1,3.33,7.77,33.7,33.7,0,0,1,.12,19.45l-.17-.42a33.59,33.59,0,0,1,7.43,5.65,34.6,34.6,0,0,1,10,20.33,33.33,33.33,0,0,1-3.27,18.27,34.32,34.32,0,0,1-7.5,10.09,28.05,28.05,0,0,1-2.65,2.16,7.22,7.22,0,0,1-1,.66,7.86,7.86,0,0,1,.91-.78,32.83,32.83,0,0,0,2.55-2.25A35.52,35.52,0,0,0,586,385.3a33.14,33.14,0,0,0,3.07-18,34.17,34.17,0,0,0-9.81-19.89,33.47,33.47,0,0,0-7.26-5.54l-.26-.14.09-.28a33.14,33.14,0,0,0,0-19.05,35.74,35.74,0,0,0-7.34-13.56,34.34,34.34,0,0,0-7.78-6.76c-1-.69-1.88-1.06-2.42-1.4A4.05,4.05,0,0,1,553.37,300.19Z"/><path class="cls-12" d="M418.29,360.54s-20.4,6.2-27.56,16.61c-5.06,7.35-56.86,119.54-56.86,119.54L255.23,473l-28.11,37.14,87.49,48.5a53.33,53.33,0,0,0,52.1-.23h0a53.33,53.33,0,0,0,21-21.73L410,494.09Z"/><path class="cls-19" d="M397.41,604.88,409.69,552l-9.3-38.42c-6-19.79-11.13-52-4.62-78l21.75-74.65,23.91-11,54.72-9.41c2.11.7,57.22,16.27,57.22,16.27a84.51,84.51,0,0,1,10.69,3l6.32,40.86-19,67.36-8.28,67.12,18.18,69.8Z"/><path class="cls-16" d="M429,355.6l15.87-7.1,71.51,1,16.92,9.82s-59.08,65.21-73.91,67.36C422.12,432.1,429,355.6,429,355.6Z"/><path class="cls-12" d="M562.5,359.17s10.72,2.41,19.9,22,24,74.11,24,74.11l6.34-57.78,51.71,5.69-10,138.08s-18.3,26.54-48.9,24.09-69.47-99.2-69.47-99.2c-13.64-36.14-9.52-51.93-4.75-71.24C535.39,378.57,541,366.88,562.5,359.17Z"/><path class="cls-10" d="M598.36,525.83a1.12,1.12,0,0,1,0-.34c0-.26,0-.58,0-1,.05-.91.13-2.17.22-3.75.2-3.27.59-8,1.13-13.8,1.08-11.64,3-27.67,5.47-45.34s4.46-33.68,5.67-45.3c.61-5.81,1.07-10.51,1.36-13.77.15-1.58.27-2.83.36-3.74,0-.39.08-.71.11-1a1.45,1.45,0,0,1,.06-.33,1.12,1.12,0,0,1,0,.34l0,1c0,.92-.13,2.17-.22,3.75-.2,3.27-.59,8-1.13,13.8-1.08,11.64-3,27.68-5.47,45.35s-4.46,33.67-5.67,45.29c-.61,5.81-1.07,10.51-1.36,13.77q-.23,2.37-.36,3.75c0,.39-.08.71-.11,1A1.45,1.45,0,0,1,598.36,525.83Z"/><path class="cls-10" d="M334.77,526.48s-.25-.34-.58-1-.74-1.7-1.2-3a44.8,44.8,0,0,1-2-20.93,31.71,31.71,0,0,1,.61-3.15,3.65,3.65,0,0,1,.37-1.12c.11,0-.2,1.66-.47,4.33a53.11,53.11,0,0,0,2,20.72C334.25,524.89,334.87,526.44,334.77,526.48Z"/><path class="cls-10" d="M343.46,527.76a4.81,4.81,0,0,1-.91-1,35.35,35.35,0,0,1-2.16-3.06,53.38,53.38,0,0,1-8.06-23.18,35.15,35.15,0,0,1-.21-3.74,5.12,5.12,0,0,1,.07-1.37c.12,0,.21,1.94.64,5.05a61.73,61.73,0,0,0,8,23C342.42,526.11,343.56,527.69,343.46,527.76Z"/><path class="cls-10" d="M404.67,404.4a5.48,5.48,0,0,1-.26,1.12l-.88,3.17-3.3,11.64c-2.68,9.84-6.42,23.5-8.21,39a90.71,90.71,0,0,0,3.33,39.34c1.47,4.89,2.85,8.78,3.8,11.48l1.09,3.1a8.11,8.11,0,0,1,.34,1.1,5.77,5.77,0,0,1-.48-1.05l-1.22-3.06c-1-2.66-2.48-6.54-4-11.42a93.55,93.55,0,0,1-3.81-17.57,95.21,95.21,0,0,1,.25-22c1.8-15.55,5.63-29.22,8.44-39,1.43-4.91,2.66-8.86,3.52-11.58.43-1.31.76-2.36,1-3.13A7.08,7.08,0,0,1,404.67,404.4Z"/><path class="cls-10" d="M549.26,495.38a2.38,2.38,0,0,1-.19-.34c-.12-.27-.28-.61-.48-1-.43-1-1-2.29-1.8-4s-1.74-3.84-2.79-6.32-2.13-5.35-3.39-8.49-2.39-6.69-3.74-10.44l-1.83-5.9-.94-3.09c-.3-1.05-.56-2.13-.85-3.21a141.59,141.59,0,0,1-4.89-28.73,82.79,82.79,0,0,1,3-28.94,51.32,51.32,0,0,1,11.45-20.76,40.29,40.29,0,0,1,12.91-9.47,30.63,30.63,0,0,1,4.1-1.51l1.09-.31a2.22,2.22,0,0,1,.38-.08l-.36.15-1.07.38a34.48,34.48,0,0,0-4,1.63,40.8,40.8,0,0,0-12.65,9.56A51.22,51.22,0,0,0,532,395.1a83.24,83.24,0,0,0-2.91,28.72,143.1,143.1,0,0,0,4.82,28.6c.27,1.08.55,2.15.82,3.2s.63,2.08.93,3.09c.62,2,1.21,4,1.79,5.9,1.32,3.75,2.46,7.27,3.65,10.44s2.32,6,3.29,8.52,1.94,4.61,2.67,6.36l1.67,4,.42,1.06A1.61,1.61,0,0,1,549.26,495.38Z"/><g class="cls-20"><path d="M529.56,432.83c-6.76,32-6.85,64.87,4.78,95.41.68,1.78,3.35,8.07,5.24,8.17,2.41.12,3.54-2.87,4-5.24.85-4.87,1.38-12.88,2.23-17.74,1.07-6.1,2.52-20.21,2.52-20.21s-5.59-12.79-8-19.65c-4.56-12.74-8.41-24.89-10.54-39.73"/></g><path class="cls-10" d="M524,556.71a5.43,5.43,0,0,1-.54.84c-.42.58-1,1.35-1.66,2.31l-1.22,1.67c-.46.59-1,1.19-1.59,1.86a54.66,54.66,0,0,1-4,4.4l-2.49,2.44c-.87.83-1.87,1.6-2.86,2.45-1.95,1.74-4.25,3.31-6.63,5a85.13,85.13,0,0,1-35.27,13.75,82.18,82.18,0,0,1-8.28.78c-1.3,0-2.56.15-3.77.13l-3.48-.11a56.59,56.59,0,0,1-5.95-.51c-.88-.1-1.69-.17-2.43-.29l-2-.41-2.79-.58a4.83,4.83,0,0,1-1-.25,6.41,6.41,0,0,1,1,.11l2.81.45,2,.34c.75.1,1.56.15,2.43.23a58.56,58.56,0,0,0,5.93.4l3.46.06c1.2,0,2.44-.12,3.74-.17,2.59-.06,5.33-.48,8.21-.84a87,87,0,0,0,35-13.64c2.37-1.69,4.67-3.23,6.62-4.94,1-.84,2-1.59,2.87-2.41s1.7-1.62,2.5-2.38c1.64-1.47,2.9-3,4.1-4.3.58-.66,1.15-1.24,1.62-1.82l1.26-1.62c.74-.92,1.32-1.66,1.77-2.23A5.81,5.81,0,0,1,524,556.71Z"/><path class="cls-10" d="M512.75,535.55a6.32,6.32,0,0,1-.18,1.52,37,37,0,0,1-1,4,48.14,48.14,0,0,1-14.76,22.78,34.52,34.52,0,0,1-3.3,2.54,5.91,5.91,0,0,1-1.31.79c-.07-.11,1.7-1.36,4.27-3.71A53.29,53.29,0,0,0,511.11,541C512.21,537.65,512.62,535.53,512.75,535.55Z"/><path class="cls-6" d="M487.57,167.73A56.21,56.21,0,0,1,536.44,251c-3.18,5.79-7.76,11.26-14,13.28a115.87,115.87,0,0,0-35.15-90"/><path class="cls-6" d="M510.22,172.74c-2.87-6,.21-13.45,5.33-17.66s11.81-5.91,18.26-7.45,13.13-3.14,18.37-7.2c-.76,10.39-3.34,21.08-10.06,29s-18.38,12.39-28,8.34"/><path class="cls-6" d="M516.89,179.59c-4.42,1.86-9.68.7-13.63-2s-6.78-6.76-9.1-11a47.07,47.07,0,0,1-5.84-16.55,27.76,27.76,0,0,1,2.92-17.1c7.6,8.09,16,14.89,20.3,25.11,2.55,6,2.24,15.61-.49,21.53"/><path class="cls-10" d="M538.4,213.23a9.93,9.93,0,0,1,.37,1.93c.11.63.22,1.39.29,2.29s.2,1.91.22,3.05a60.49,60.49,0,0,1-.14,7.95,64.28,64.28,0,0,1-4.5,18.92,60.55,60.55,0,0,1-3.46,7.17c-.53,1-1.1,1.85-1.57,2.62s-.91,1.4-1.28,1.91a9.86,9.86,0,0,1-1.21,1.55,11.21,11.21,0,0,1,1-1.7c.34-.53.75-1.19,1.18-2s1-1.65,1.47-2.66a71.64,71.64,0,0,0,3.28-7.17,74.52,74.52,0,0,0,2.89-9.2,75.64,75.64,0,0,0,1.57-9.52,70.47,70.47,0,0,0,.29-7.89c0-1.12-.07-2.14-.11-3s-.1-1.66-.17-2.29A9.67,9.67,0,0,1,538.4,213.23Z"/><path class="cls-10" d="M534.06,176a11.61,11.61,0,0,1-1.53,1.22,16.93,16.93,0,0,1-5,1.94c-4.47,1-10.91.8-17.72-1l-.2-.06-.05-.2c-.09-.42-.19-.86-.29-1.31a31.12,31.12,0,0,1-.46-10.32,17.49,17.49,0,0,1,2.92-7.92,14.73,14.73,0,0,1,4.11-3.93,10.79,10.79,0,0,1,1.87-.92,11.75,11.75,0,0,1-1.71,1.16,15.6,15.6,0,0,0-3.85,4,17.62,17.62,0,0,0-2.68,7.71,31.48,31.48,0,0,0,.51,10.09c.1.44.19.88.28,1.29l-.24-.26c6.67,1.79,13,2.08,17.4,1.21a18.45,18.45,0,0,0,5-1.69A10.49,10.49,0,0,1,534.06,176Z"/><path class="cls-10" d="M539.75,158.05c0,.13-2,.42-5.21,1.36a44.64,44.64,0,0,0-5.45,2,43.95,43.95,0,0,0-11.86,7.77,43.34,43.34,0,0,0-4,4.19c-2.14,2.54-3.22,4.3-3.33,4.23a6.13,6.13,0,0,1,.67-1.29,30.35,30.35,0,0,1,2.26-3.26,39.27,39.27,0,0,1,4-4.36,45,45,0,0,1,5.67-4.48,44.3,44.3,0,0,1,6.37-3.41,38.47,38.47,0,0,1,5.58-1.9,28.89,28.89,0,0,1,3.89-.77A5.73,5.73,0,0,1,539.75,158.05Z"/><path class="cls-10" d="M516.59,179.42a1.21,1.21,0,0,1-.05.42,6.25,6.25,0,0,1-.38,1.15,9,9,0,0,1-2.74,3.47,9.54,9.54,0,0,1-6.24,2A9.39,9.39,0,0,1,499,174.56a9.56,9.56,0,0,1,4.12-5.09,9,9,0,0,1,4.23-1.3,5.54,5.54,0,0,1,1.2.07c.27,0,.41.07.41.1s-.58,0-1.59.11a9.44,9.44,0,0,0-4,1.46,9.16,9.16,0,0,0-3.77,4.85,8.85,8.85,0,0,0,7.57,11.05,9.25,9.25,0,0,0,5.88-1.76,9.41,9.41,0,0,0,2.8-3.18C516.38,180,516.52,179.4,516.59,179.42Z"/><path class="cls-10" d="M499.77,179.77c-.07.07-.48-.75.18-1.84a3.16,3.16,0,0,1,1.64-1.28,6.16,6.16,0,0,1,2.48-.26c3.46.24,6,1.6,5.89,1.75s-2.63-.8-5.94-1a4,4,0,0,0-3.65,1.12A3.51,3.51,0,0,0,499.77,179.77Z"/><path class="cls-10" d="M491.24,133a17.4,17.4,0,0,0-2.11,5.94,40.19,40.19,0,0,0-.33,6.88,44.72,44.72,0,0,0,.74,8.4,41.68,41.68,0,0,0,5.92,14.05c1.13,1.61,2.12,2.86,2.82,3.71a15.55,15.55,0,0,1,1.11,1.31c-.08.11-2-1.53-4.34-4.72a39,39,0,0,1-6.22-14.2,42.53,42.53,0,0,1-.7-8.54,38.35,38.35,0,0,1,.49-7,14.09,14.09,0,0,1,1.59-4.46A5.44,5.44,0,0,1,491.24,133Z"/><path class="cls-10" d="M498.43,149.44a10.54,10.54,0,0,1,1.95,2.37,40.64,40.64,0,0,1,3.69,6.43,39.17,39.17,0,0,1,2.44,7,10.68,10.68,0,0,1,.47,3c-.22.05-1.17-4.54-3.57-9.74S498.24,149.58,498.43,149.44Z"/><path class="cls-10" d="M496.09,158.09c.14-.13,2.48,2.24,5.54,5s5.49,5.05,5.35,5.21-2.77-1.9-5.84-4.68S495.93,158.22,496.09,158.09Z"/><path class="cls-2" d="M532.39,190.63s-.06.08-.2.2l-.61.52a27.56,27.56,0,0,1-2.37,1.76,35.71,35.71,0,0,1-18.29,6,25,25,0,0,1-2.95,0l-.8,0a1.33,1.33,0,0,1-.28,0,.9.9,0,0,1,.28,0h.8c.7,0,1.7,0,2.94-.08a37.67,37.67,0,0,0,18.19-6c1-.68,1.86-1.25,2.41-1.68l.65-.48Z"/><path class="cls-2" d="M540.57,207.42a1.32,1.32,0,0,1-.21.2l-.61.51c-.54.45-1.35,1.05-2.38,1.75a40.5,40.5,0,0,1-8.69,4.4,39.76,39.76,0,0,1-9.49,2.15,29.5,29.5,0,0,1-3,.18h-.8a.84.84,0,0,1-.28,0,1.18,1.18,0,0,1,.28,0l.8,0c.69,0,1.69-.11,2.93-.26a42.38,42.38,0,0,0,18.08-6.52c1-.67,1.87-1.25,2.43-1.67l.65-.47Z"/><path class="cls-2" d="M538.3,231.91a3.31,3.31,0,0,1-.59.43,18.84,18.84,0,0,1-1.71,1,27.69,27.69,0,0,1-6.1,2.41,28.25,28.25,0,0,1-6.5.89c-.84,0-1.52,0-2-.06a3.7,3.7,0,0,1-.73-.09,3.2,3.2,0,0,1,.73,0c.47,0,1.15,0,2,0a31.28,31.28,0,0,0,6.43-1,31.82,31.82,0,0,0,6.09-2.31c.74-.38,1.34-.7,1.74-.94A3.12,3.12,0,0,1,538.3,231.91Z"/><path class="cls-2" d="M543,228.17a6.91,6.91,0,0,1-1.87.5,6.36,6.36,0,0,1-1.93.23,6.44,6.44,0,0,1,1.87-.51A6.56,6.56,0,0,1,543,228.17Z"/><path class="cls-2" d="M529.24,257a12.87,12.87,0,0,1-6.28-.46c0-.08,1.4.21,3.13.33S529.23,256.87,529.24,257Z"/><path class="cls-2" d="M502.91,184.41a16.36,16.36,0,0,1-3.84,2.12,17.39,17.39,0,0,1,3.84-2.12Z"/><path class="cls-2" d="M496,169.85a25.26,25.26,0,0,0-4.09,2.2,24.41,24.41,0,0,0-3.42,3.14,4.6,4.6,0,0,1,.79-1.13,13.61,13.61,0,0,1,2.46-2.24,14,14,0,0,1,2.93-1.59A5,5,0,0,1,496,169.85Z"/><path class="cls-2" d="M508.52,186a19.84,19.84,0,0,0,.07-4.21,19.34,19.34,0,0,0-1.14-4,3.8,3.8,0,0,1,.62,1.09,10.77,10.77,0,0,1,.81,2.92,11.05,11.05,0,0,1,0,3A4.13,4.13,0,0,1,508.52,186Z"/><path class="cls-2" d="M551.44,140.73a17.15,17.15,0,0,1-1.52,1.62,30.94,30.94,0,0,1-4.8,3.7,60.88,60.88,0,0,1-8,4.12c-3.09,1.37-6.55,2.72-10,4.4a39.23,39.23,0,0,0-9.2,5.87,23.11,23.11,0,0,0-5.41,7,16.86,16.86,0,0,0-1.65,5.75c-.12,1.42,0,2.21-.07,2.21s0-.19,0-.57a12.65,12.65,0,0,1,0-1.65,16.53,16.53,0,0,1,1.58-5.83,23,23,0,0,1,5.41-7.14,39,39,0,0,1,9.25-5.94c3.52-1.69,7-3,10.08-4.38a63,63,0,0,0,8-4.06,31.9,31.9,0,0,0,4.83-3.6c.53-.48.93-.87,1.19-1.14S551.44,140.73,551.44,140.73Z"/><path class="cls-2" d="M547.69,157.2a2.22,2.22,0,0,1-.19.31q-.25.41-.57.87c-.5.76-1.28,1.82-2.3,3.09a55,55,0,0,1-19.87,15.42c-1.48.67-2.7,1.17-3.56,1.46l-1,.34-.35.11a1.2,1.2,0,0,1,.33-.16l1-.39c.85-.33,2.05-.85,3.51-1.54a57.83,57.83,0,0,0,19.81-15.37c1-1.25,1.83-2.28,2.35-3l.63-.84C547.6,157.29,547.68,157.19,547.69,157.2Z"/><path class="cls-2" d="M489.78,137.7a27.42,27.42,0,0,1,4.21,2.23,34.78,34.78,0,0,1,14,17.73,26,26,0,0,1,1.21,4.6,2,2,0,0,1-.1-.31l-.25-.92a32.81,32.81,0,0,0-1.05-3.3,36.16,36.16,0,0,0-14-17.63,33,33,0,0,0-3-1.77l-.84-.45A1.53,1.53,0,0,1,489.78,137.7Z"/><path class="cls-10" d="M420.21,189.87c.54,7.36-4.32,13.92-9.21,19.44s-10.34,11.27-11.39,18.56c-1.88,12.93,10.78,24.94,8.17,37.74-1.4,6.87-7,12.38-8,19.31-1,6.7,2.63,13.27,7.08,18.37s9.61,4.36,13.55,9.87a55.51,55.51,0,0,0,17.09,15.19c14.19,7.77,31.22-3.48,38.06-5.49"/><path class="cls-10" d="M527.51,220c6.54-2.85,7.06-26.29-9.35-29-6.59-1.09-12.07-4.3-17.6-8-4.9-3.3-6.36-11.67-10.51-15.87A41.06,41.06,0,0,0,421,186c-2.38,9.5-.75,20.72,6.73,27,8.69,7.32,21.57,5.69,32.7,3.42s23.74-4.53,33,2c5.61,3.94,8.82,10.35,12.25,16.29s7.73,12,14.21,14.23c0,0,4.93,11.59.9,19.66s4.74-5.69,4.74-5.69,16-28.41,2-42.91"/><path class="cls-16" d="M444.39,384.51c-.09-15.3,0-58.27,0-58.19s-24.31-4.09-29.27-35.83c-2.48-15.78-1.63-41.65-.25-62.79,1.25-19,13.91-42.36,32.87-40.31l59.19,15.1a11.15,11.15,0,0,1,9.95,11.34h0l-3.6,147Z"/><path class="cls-10" d="M425,245.83a4.06,4.06,0,0,0,3.91,4.11,3.88,3.88,0,0,0,4.2-3.66,4.05,4.05,0,0,0-3.91-4.11A3.88,3.88,0,0,0,425,245.83Z"/><path class="cls-10" d="M420.46,241.17c.5.53,3.59-1.75,8-1.73s7.58,2.22,8.05,1.69c.24-.24-.27-1.2-1.67-2.22a11.12,11.12,0,0,0-6.45-2,10.73,10.73,0,0,0-6.35,2C420.67,240,420.21,240.93,420.46,241.17Z"/><path class="cls-10" d="M463.49,248.14c.51.53,3.6-1.74,8-1.72s7.59,2.22,8.06,1.68c.23-.23-.27-1.19-1.67-2.21a11.22,11.22,0,0,0-6.45-2,10.7,10.7,0,0,0-6.35,2C463.71,247,463.25,247.91,463.49,248.14Z"/><path class="cls-10" d="M447.53,274.51c0-.24-2.7-.72-7.11-1.3-1.12-.11-2.17-.34-2.36-1.1s.21-2,.75-3.31l3.33-8.51c4.62-12.11,8-22.07,7.47-22.25s-4.63,9.49-9.24,21.6q-1.68,4.47-3.19,8.55c-.43,1.27-1.16,2.71-.59,4.39a2.79,2.79,0,0,0,1.83,1.64,7.94,7.94,0,0,0,1.9.27C444.76,274.74,447.51,274.76,447.53,274.51Z"/><path class="cls-17" d="M444.39,326.32a80.78,80.78,0,0,0,42.52-11.24c-.36.08-11.7,22.06-42.11,18.73Z"/><path class="cls-17" d="M448.79,287.15c-.52-2.69,2.65-3.56,5-5s3.67-3.38,5.86-1.72a8.6,8.6,0,0,1,2.69,3.78,5.93,5.93,0,0,1,.44,3.1,6,6,0,0,1-1.95,3.24,9.25,9.25,0,0,1-4.75,2.49,6.63,6.63,0,0,1-5.15-1.21,5.17,5.17,0,0,1-2-4.8"/><path class="cls-10" d="M460.41,277.57c-.71,0-.73,4.71-4.81,8.07s-9.13,2.84-9.17,3.5c-.07.3,1.13.93,3.26,1a11.81,11.81,0,0,0,7.66-2.65,10.3,10.3,0,0,0,3.73-6.77C461.26,278.72,460.73,277.54,460.41,277.57Z"/><path class="cls-10" d="M462.84,238.36c.43,1.19,4.8.64,9.94,1.27s9.29,2,10,1c.31-.51-.41-1.63-2.09-2.78a17.35,17.35,0,0,0-15.16-1.71C463.61,236.86,462.66,237.8,462.84,238.36Z"/><path class="cls-10" d="M421.07,226c.76,1,3.78,0,7.41-.07s6.7.68,7.41-.35c.31-.51-.18-1.51-1.52-2.45a10.76,10.76,0,0,0-11.94.34C421.15,224.51,420.73,225.54,421.07,226Z"/><path class="cls-10" d="M520.35,308.63c-8.72,1.76-9.5-2.68-16-8.74a28.69,28.69,0,0,1-8.77-24.18c1-7.79,5.19-15.72,2.49-23.09-3.57-9.75-17.24-12.75-20.87-22.48-2.11-5.66-.21-12.27-2.6-17.82-2.25-5.21-7.73-8.21-13.07-10.14s-11.06-3.26-15.54-6.74-7.28-10.06-4.39-14.94a300.28,300.28,0,0,1,69.33,16.84c5.18,1.94,10.62,4.26,13.68,8.86,3.24,4.87,3.08,11.16,2.81,17l-4,85.46"/><path class="cls-18" d="M540.57,298s.14-.12.35-.39a12.38,12.38,0,0,0,.87-1.27,16.8,16.8,0,0,0,2.09-5.55,19.42,19.42,0,0,0-.51-9.37,17.87,17.87,0,0,0-7.38-9.93c-3.76-2.66-8.67-4.5-11.78-8.73a9.53,9.53,0,0,1-1.72-7.45c.42-2.72,1.67-5.39,2.76-8.23a23.68,23.68,0,0,0-.41-18.94,20.75,20.75,0,0,0-6.44-8,25,25,0,0,0-9.73-4c-3.44-.79-6.86-1.24-10-2.2a19.61,19.61,0,0,1-8.42-4.6C488,207.08,487,204,486.56,201a70.85,70.85,0,0,0-1.49-9.22,31.86,31.86,0,0,0-8.56-15A25.12,25.12,0,0,0,463,170a20.06,20.06,0,0,0-12.27,1.86,19.3,19.3,0,0,0-7.09,6.14,16.51,16.51,0,0,0-2.48,5.38,8.44,8.44,0,0,0-.31,2c.21.09.25-3,3.23-7.1a19.14,19.14,0,0,1,7-5.76A19.39,19.39,0,0,1,462.88,171a24.25,24.25,0,0,1,12.83,6.55,30.86,30.86,0,0,1,8.12,14.5,73.43,73.43,0,0,1,1.42,9.1c.41,3.14,1.47,6.62,4,9.08a21,21,0,0,0,9,5c3.33,1,6.77,1.45,10.13,2.23a23.75,23.75,0,0,1,9.22,3.79,19.41,19.41,0,0,1,6,7.45,22.41,22.41,0,0,1,.45,17.91c-1,2.8-2.33,5.54-2.77,8.51a10.68,10.68,0,0,0,2,8.31c3.46,4.55,8.5,6.33,12.15,8.86a17.17,17.17,0,0,1,7.2,9.35,19.4,19.4,0,0,1,.72,9C542.48,295.69,540.36,297.89,540.57,298Z"/><path class="cls-10" d="M499.29,266.45a80.3,80.3,0,0,0-3.71,52.92c1.44,5.19,3.42,10.57,2.2,15.81-1.33,5.68-6.08,9.79-9.54,14.48a35.71,35.71,0,0,0,10.95,52.2c.91-5.22,5.77-8.78,10.56-11.05s10.07-3.95,13.72-7.79,4.69-10.87.44-14c12.22-3.19,19.14-17.7,16.57-30.06s-12.62-22.12-24.06-27.47"/><path class="cls-10" d="M512.31,389.65c-2.18,1.2-4.3,2.27-4.57,4.75-.32,2.9,2.47,8,3.47,10.75a14.94,14.94,0,0,1-19.52,19c3.91.3,7.22-3.52,7.57-7.42s-1.55-7.67-3.88-10.83-5.15-6-7.12-9.34c-4-6.89-10-25.64-5.4-36.14"/><path class="cls-18" d="M523.42,369.46a4.22,4.22,0,0,1,.75-.63c.51-.39,1.24-1,2.17-1.76a49.09,49.09,0,0,0,7.14-7.38,37,37,0,0,0,6.75-13.48,30.37,30.37,0,0,0-.89-18.22,27.19,27.19,0,0,0-5-8.11c-2-2.34-4.27-4.39-6.35-6.38a66.68,66.68,0,0,1-5.7-5.93,25.77,25.77,0,0,1-3.73-6.13,16.28,16.28,0,0,1-1.22-10.2,10.45,10.45,0,0,1,1-2.63,5.54,5.54,0,0,1,.53-.82,18.72,18.72,0,0,0-1.3,3.51,16.35,16.35,0,0,0,1.42,9.93,25.17,25.17,0,0,0,3.73,6,67,67,0,0,0,5.68,5.83,90,90,0,0,1,6.43,6.4,27.21,27.21,0,0,1,5.16,8.31,30.74,30.74,0,0,1,.87,18.64,37.08,37.08,0,0,1-7,13.64,44.44,44.44,0,0,1-7.36,7.27c-1,.76-1.73,1.31-2.27,1.67A5.6,5.6,0,0,1,523.42,369.46Z"/></g><g id="Plant"><path class="cls-21" d="M124.71,535.15c3.51,4.4,9.67,2.48,12.39-.51s3.7-7.13,4.57-11.08c2-9,4-18.47,1.51-27.37a15,15,0,0,0-3.93-7.17,7.89,7.89,0,0,0-7.63-2c-3.11,1-4.87,4.24-6.1,7.27a64.92,64.92,0,0,0-4.66,28.2c.27,4.48,1.09,9.15,3.85,12.68"/><g class="cls-22"><path d="M124.71,535.15c3.51,4.4,9.67,2.48,12.39-.51s3.7-7.13,4.57-11.08c2-9,4-18.47,1.51-27.37a15,15,0,0,0-3.93-7.17,7.89,7.89,0,0,0-7.63-2c-3.11,1-4.87,4.24-6.1,7.27a64.92,64.92,0,0,0-4.66,28.2c.27,4.48,1.09,9.15,3.85,12.68"/></g><path class="cls-21" d="M138.24,557.67c5.09-3,11.26-3.79,17.17-3.19,3.17.32,6.5,1,8.78,3.28s2.95,6.35.63,8.53c-1.38,1.29-3.41,1.61-5.3,1.7-4.58.24-9.71-.25-13.19,2.73-2,1.7-3.21,4.4-5.65,5.33s-5.24-.36-6.67-2.48a10.07,10.07,0,0,1-1.2-7.38A11.39,11.39,0,0,1,138.24,557.67Z"/><path class="cls-21" d="M116.29,542.3c3.23-4.36,3.52-10.45,1.63-15.55s-5.67-9.3-9.94-12.65a49.24,49.24,0,0,0-16.93-8.6,17.4,17.4,0,0,0-7.42-.79,7.73,7.73,0,0,0-5.93,4.12c-1.51,3.38.39,7.25,2.37,10.38a124.38,124.38,0,0,0,11.75,15.65c3.47,3.94,7.41,7.8,12.43,9.36s10.09,1,12.47-2.53"/><path class="cls-10" d="M128.86,604.5a10.16,10.16,0,0,0,.16-2.1c0-1.53.12-3.45.19-5.74a84.48,84.48,0,0,1,.76-8.44,64.89,64.89,0,0,1,2.42-10.06,36.25,36.25,0,0,1,4.48-9.24,18.88,18.88,0,0,1,6-5.7,17.74,17.74,0,0,1,5.26-2,9.74,9.74,0,0,0,2.06-.43,10,10,0,0,0-2.12.1,16.21,16.21,0,0,0-5.5,1.81,18.79,18.79,0,0,0-6.38,5.76,35.67,35.67,0,0,0-4.65,9.44,60.81,60.81,0,0,0-2.39,10.22,72,72,0,0,0-.58,8.53c0,2.44,0,4.4.08,5.76A9.94,9.94,0,0,0,128.86,604.5Z"/><path class="cls-10" d="M129,600.09a5.51,5.51,0,0,0,0-1c-.05-.73-.11-1.64-.18-2.77-.16-2.41-.38-5.89-.52-10.19-.33-8.61-.33-20.52.28-33.66s1.78-25,3-33.52c.28-2.13.58-4.06.86-5.75s.5-3.14.73-4.33.35-2,.48-2.73a4.12,4.12,0,0,0,.11-1,4,4,0,0,0-.28.93l-.64,2.71c-.28,1.17-.56,2.62-.87,4.31s-.67,3.61-1,5.74a314.58,314.58,0,0,0-3.26,33.57c-.61,13.16-.5,25.1,0,33.73.22,4.31.53,7.79.79,10.19.14,1.12.26,2,.35,2.76A3.92,3.92,0,0,0,129,600.09Z"/><path class="cls-10" d="M127.59,577.14a19.35,19.35,0,0,0-.2-2.9c-.23-1.85-.65-4.52-1.38-7.78a106.07,106.07,0,0,0-3.27-11.27A101.54,101.54,0,0,0,117.11,542a72.3,72.3,0,0,0-15.41-21,34.33,34.33,0,0,0-3.5-2.86c-.53-.4-1-.8-1.48-1.11l-1.34-.8a19.75,19.75,0,0,0-2.53-1.41c-.13.2,3.59,2.09,8.43,6.63a76,76,0,0,1,15.06,20.91A109.15,109.15,0,0,1,122,555.45c1.51,4.12,2.59,7.93,3.42,11.15s1.32,5.86,1.64,7.69A18.59,18.59,0,0,0,127.59,577.14Z"/></g><g id="Confetti"><path class="cls-6" d="M339.25,259.73c-2.56-9.06-14.34-8.18-14.34-8.18l.33,6.3c6.81-1.17,11,6.81,11,6.81Z"/><path class="cls-12" d="M223.34,154.28c-6.36.67-7.12,8.66-7.12,8.66l4.26.5c0-4.69,5.82-6.61,5.82-6.61Z"/><path class="cls-12" d="M279.62,80.21c3.88,9.88,17,7.58,17,7.58l-1.07-7c-7.51,2.07-13.14-6.41-13.14-6.41Z"/><path class="cls-12" d="M134.62,236.66c-6.36.68-7.12,8.66-7.12,8.66l4.26.51c0-4.69,5.82-6.61,5.82-6.61Z"/><path class="cls-12" d="M160.82,101.27c.93-6.33-6.62-9-6.62-9l-1.54,4c4.54,1.16,5,7.28,5,7.28Z"/><path class="cls-12" d="M52.1,198.39c-1.14,9.93,12,12.33,12,12.33l2.37-6.49c-7.88-.72-9-10-9-10Z"/><path class="cls-12" d="M364.49,150.51c6.38.37,8.43-7.39,8.43-7.39l-4.12-1.19c-.75,4.63-6.81,5.58-6.81,5.58Z"/></g></svg>